<svg version="1.1" xmlns="http://www.w3.org/2000/svg" viewBox="0 0 671.1519775390625 265.29913330078125" width="671.1519775390625" height="265.29913330078125">
  <!-- svg-source:excalidraw -->
  
  <defs>
    <style class="style-fonts">
      @font-face {
        font-family: "Virgil";
        src: url("https://excalidraw.com/Virgil.woff2");
      }
      @font-face {
        font-family: "Cascadia";
        src: url("https://excalidraw.com/Cascadia.woff2");
      }
    </style>
    
  </defs>
  <rect x="0" y="0" width="671.1519775390625" height="265.29913330078125" fill="#ffffff"></rect><g stroke-linecap="round" transform="translate(69.2265625 32.907745361328125) rotate(0 33.72259521484375 28.960525512695305)"><path d="M25.53 1.71 C32 -0.29, 41.22 0.12, 47.67 2.63 C54.12 5.13, 61.1 11.15, 64.23 16.75 C67.35 22.34, 68.24 30.26, 66.42 36.21 C64.61 42.16, 59.21 48.88, 53.35 52.46 C47.49 56.03, 38.57 58.17, 31.25 57.66 C23.93 57.15, 14.6 53.87, 9.44 49.39 C4.28 44.91, 0.94 37.05, 0.29 30.79 C-0.36 24.53, 1.13 16.94, 5.55 11.85 C9.97 6.75, 23.08 1.89, 26.8 0.23 C30.53 -1.43, 27.79 1.48, 27.89 1.89 M39.52 0.84 C45.93 1.18, 53.46 5.25, 57.92 9.63 C62.38 14.01, 65.99 21.13, 66.26 27.13 C66.52 33.14, 63.75 40.76, 59.52 45.64 C55.3 50.53, 47.68 54.84, 40.89 56.43 C34.09 58.02, 25.38 58, 18.74 55.18 C12.11 52.37, 4.01 45.61, 1.08 39.54 C-1.85 33.46, -1.15 24.88, 1.16 18.74 C3.47 12.6, 8.86 6, 14.93 2.69 C20.99 -0.61, 33.54 -0.88, 37.54 -1.08 C41.55 -1.28, 39.05 0.94, 38.97 1.52" stroke="#1e1e1e" stroke-width="1" fill="none"></path></g><g transform="translate(95.16368714720699 49.39008689727055) rotate(0 7.939994812011719 12.5)"><text x="7.939994812011719" y="0" font-family="Virgil, Segoe UI Emoji" font-size="20px" fill="#1e1e1e" text-anchor="middle" style="white-space: pre;" direction="ltr" dominant-baseline="text-before-edge">v1</text></g><g stroke-linecap="round" transform="translate(149.97674560546875 174.6109161376953) rotate(0 33.72259521484375 24.5)"><path d="M17.78 3.44 C23.41 0.76, 33.08 -0.29, 40.33 0.82 C47.58 1.94, 56.83 6.19, 61.28 10.13 C65.73 14.08, 67.35 19.31, 67.02 24.5 C66.69 29.69, 64.2 37.25, 59.31 41.28 C54.43 45.31, 44.84 47.84, 37.7 48.67 C30.57 49.5, 22.58 49.06, 16.5 46.24 C10.42 43.43, 3.55 36.88, 1.21 31.77 C-1.13 26.67, -0.89 20.62, 2.46 15.61 C5.8 10.61, 17.51 4.03, 21.28 1.74 C25.05 -0.54, 24.84 1.36, 25.1 1.89 M32.31 0.79 C38.82 0.26, 46.72 1.09, 52.51 4.17 C58.3 7.26, 64.95 14.22, 67.06 19.32 C69.17 24.42, 68.61 30.26, 65.18 34.78 C61.75 39.29, 53.15 44.31, 46.48 46.42 C39.82 48.53, 31.74 48.81, 25.17 47.43 C18.6 46.06, 11.05 42.45, 7.08 38.19 C3.12 33.92, 1.04 27.11, 1.38 21.83 C1.72 16.55, 4.41 10.12, 9.12 6.48 C13.84 2.84, 26.13 0.91, 29.67 -0.03 C33.22 -0.97, 30.05 0.45, 30.41 0.85" stroke="#1e1e1e" stroke-width="1" fill="none"></path></g><g transform="translate(171.5038742199609 186.7867999986249) rotate(0 12.349990844726562 12.5)"><text x="12.349990844726562" y="0" font-family="Virgil, Segoe UI Emoji" font-size="20px" fill="#1e1e1e" text-anchor="middle" style="white-space: pre;" direction="ltr" dominant-baseline="text-before-edge">v2</text></g><g stroke-linecap="round" transform="translate(328.0262451171875 35.20219421386719) rotate(0 33.72259521484375 28.960525512695305)"><path d="M42.52 1.68 C49.35 2.92, 58.32 7.03, 62.41 12.03 C66.49 17.02, 67.78 25.39, 67.01 31.62 C66.23 37.85, 62.82 45.06, 57.74 49.39 C52.67 53.72, 43.71 57.06, 36.56 57.62 C29.41 58.19, 20.61 56.36, 14.86 52.78 C9.11 49.2, 3.89 42.35, 2.06 36.17 C0.22 29.99, 0.79 21.19, 3.85 15.69 C6.91 10.18, 13.8 5.56, 20.41 3.14 C27.03 0.71, 39.33 1.16, 43.56 1.15 C47.8 1.13, 45.78 2.55, 45.81 3.02 M19.98 3.43 C26.17 0.93, 36.55 1.04, 43.52 2.52 C50.48 3.99, 57.91 7.51, 61.77 12.28 C65.62 17.05, 67.52 24.95, 66.65 31.15 C65.78 37.34, 61.7 44.92, 56.53 49.46 C51.37 53.99, 42.89 57.88, 35.66 58.38 C28.43 58.88, 19.16 56.19, 13.16 52.47 C7.17 48.74, 1.23 42.35, -0.3 36.02 C-1.83 29.7, 0.72 20.25, 3.98 14.51 C7.24 8.77, 16.5 3.5, 19.29 1.58 C22.07 -0.35, 20.1 2.33, 20.69 2.96" stroke="#1e1e1e" stroke-width="1" fill="none"></path></g><g transform="translate(349.8633712902734 51.68453574980961) rotate(0 12.039993286132812 12.5)"><text x="12.039993286132812" y="0" font-family="Virgil, Segoe UI Emoji" font-size="20px" fill="#1e1e1e" text-anchor="middle" style="white-space: pre;" direction="ltr" dominant-baseline="text-before-edge">v3</text></g><g stroke-linecap="round" transform="translate(586.7444458007812 35.11943054199219) rotate(0 33.72259521484375 28.960525512695305)"><path d="M34.86 0.96 C41.74 0.76, 50.76 3.84, 55.97 7.94 C61.19 12.03, 65.02 19.6, 66.18 25.55 C67.33 31.49, 66.6 38.38, 62.91 43.61 C59.23 48.83, 50.92 54.74, 44.08 56.9 C37.25 59.06, 28.61 59.06, 21.91 56.57 C15.2 54.07, 7.43 47.44, 3.85 41.92 C0.27 36.4, -0.98 29.26, 0.44 23.44 C1.85 17.63, 5.89 10.74, 12.35 7.03 C18.81 3.33, 34.01 2.18, 39.18 1.22 C44.36 0.25, 43.53 1.04, 43.4 1.22 M33.02 -0.16 C40.06 -0.97, 49.18 1.1, 54.9 4.99 C60.62 8.88, 66.12 17.15, 67.35 23.18 C68.58 29.21, 65.9 35.78, 62.29 41.18 C58.68 46.58, 52.15 52.89, 45.68 55.59 C39.22 58.29, 30.17 59.12, 23.49 57.39 C16.8 55.66, 9.59 50.81, 5.58 45.19 C1.57 39.56, -1.43 29.82, -0.56 23.66 C0.31 17.5, 5.32 11.99, 10.81 8.24 C16.29 4.48, 28.85 2.28, 32.34 1.12 C35.83 -0.04, 31.53 1.01, 31.77 1.28" stroke="#1e1e1e" stroke-width="1" fill="none"></path></g><g transform="translate(608.9915756359765 51.60177207793461) rotate(0 11.629989624023438 12.5)"><text x="11.629989624023438" y="0" font-family="Virgil, Segoe UI Emoji" font-size="20px" fill="#1e1e1e" text-anchor="middle" style="white-space: pre;" direction="ltr" dominant-baseline="text-before-edge">v4</text></g><g stroke-linecap="round"><g transform="translate(138.8136005050266 63.33587510347044) rotate(0 93.70722990126586 0.6479532295864274)"><path d="M-0.08 -0.28 C31.59 0.15, 157.5 2.48, 189 2.77 M-1.58 -1.48 C30.08 -1.41, 156.76 0.33, 188.44 0.99" stroke="#1e1e1e" stroke-width="1" fill="none"></path></g><g transform="translate(138.8136005050266 63.33587510347044) rotate(0 93.70722990126586 0.6479532295864274)"><path d="M159.62 12.04 C167.27 9.81, 171.24 5.97, 190.06 0.57 M159.53 10.73 C165.42 9.09, 171.46 7.11, 188.21 1.32" stroke="#1e1e1e" stroke-width="1" fill="none"></path></g><g transform="translate(138.8136005050266 63.33587510347044) rotate(0 93.70722990126586 0.6479532295864274)"><path d="M159.95 -8.48 C167.57 -6.28, 171.46 -5.68, 190.06 0.57 M159.87 -9.79 C165.58 -7.25, 171.55 -5.07, 188.21 1.32" stroke="#1e1e1e" stroke-width="1" fill="none"></path></g></g><mask></mask><g transform="translate(163.97174072265625 36.38996887207031) rotate(0 57.66999053955078 12.5)"><text x="0" y="0" font-family="Virgil, Segoe UI Emoji" font-size="20px" fill="#1e1e1e" text-anchor="start" style="white-space: pre;" direction="ltr" dominant-baseline="text-before-edge">a1=2 打鸡蛋</text></g><g transform="translate(10 119.52169799804688) rotate(0 57.66999053955078 12.5)"><text x="0" y="0" font-family="Virgil, Segoe UI Emoji" font-size="20px" fill="#1e1e1e" text-anchor="start" style="white-space: pre;" direction="ltr" dominant-baseline="text-before-edge">a2=1 洗番茄</text></g><g stroke-linecap="round"><g transform="translate(114.07835396899827 91.14047236481166) rotate(0 25.872579613105444 41.40085131747494)"><path d="M1 -0.38 C9.64 13.83, 43.5 70.41, 51.67 84.43 M0.07 -1.63 C8.65 12.33, 43.08 68.33, 51.22 82.8" stroke="#1e1e1e" stroke-width="1" fill="none"></path></g><g transform="translate(114.07835396899827 91.14047236481166) rotate(0 25.872579613105444 41.40085131747494)"><path d="M27.38 65.33 C36.1 67.9, 41.62 72.54, 51.43 81.17 M28.28 63.71 C35.11 69.58, 42.78 75.9, 51.14 83.63" stroke="#1e1e1e" stroke-width="1" fill="none"></path></g><g transform="translate(114.07835396899827 91.14047236481166) rotate(0 25.872579613105444 41.40085131747494)"><path d="M45.04 54.88 C48.6 60.6, 49.04 68.25, 51.43 81.17 M45.94 53.26 C46.88 62.51, 48.67 72.3, 51.14 83.63" stroke="#1e1e1e" stroke-width="1" fill="none"></path></g></g><mask></mask><g stroke-linecap="round"><g transform="translate(224.67523620787443 196.50821833416657) rotate(0 68.03557670253754 -47.90405265605236)"><path d="M-0.37 1.2 C22.55 -14.94, 113.94 -80.67, 136.45 -97.01 M1.63 0.78 C24.55 -15.19, 113.29 -79.75, 135.85 -95.84" stroke="#1e1e1e" stroke-width="1" fill="none"></path></g><g transform="translate(224.67523620787443 196.50821833416657) rotate(0 68.03557670253754 -47.90405265605236)"><path d="M120.98 -69.91 C121.37 -77.96, 125.2 -82.95, 134.62 -95.03 M118.46 -71.73 C123.49 -76.47, 126.68 -80.27, 135.31 -96.05" stroke="#1e1e1e" stroke-width="1" fill="none"></path></g><g transform="translate(224.67523620787443 196.50821833416657) rotate(0 68.03557670253754 -47.90405265605236)"><path d="M108.98 -86.55 C111.84 -91.1, 118.18 -92.62, 134.62 -95.03 M106.46 -88.38 C113.78 -89.71, 119.42 -90.12, 135.31 -96.05" stroke="#1e1e1e" stroke-width="1" fill="none"></path></g></g><mask></mask><g stroke-linecap="round"><g transform="translate(396.7587928933397 65.41407270331513) rotate(0 93.0814030658766 0.15056554115713539)"><path d="M-0.17 0.21 C31.1 0.15, 156.66 -0.27, 187.89 -0.11 M-1.72 -0.72 C29.46 -0.68, 156.14 1.05, 187.53 1.02" stroke="#1e1e1e" stroke-width="1" fill="none"></path></g><g transform="translate(396.7587928933397 65.41407270331513) rotate(0 93.0814030658766 0.15056554115713539)"><path d="M159.62 12.95 C167.03 8.56, 178.24 4.84, 187.37 1.59 M158.94 11.9 C165.29 7.47, 172.21 6.38, 188.5 1.57" stroke="#1e1e1e" stroke-width="1" fill="none"></path></g><g transform="translate(396.7587928933397 65.41407270331513) rotate(0 93.0814030658766 0.15056554115713539)"><path d="M159.77 -7.57 C167.18 -5.36, 178.35 -2.48, 187.37 1.59 M159.09 -8.62 C165.38 -8.01, 172.26 -4.06, 188.5 1.57" stroke="#1e1e1e" stroke-width="1" fill="none"></path></g></g><mask></mask><g transform="translate(276.759521484375 152.806884765625) rotate(0 61.459991455078125 12.5)"><text x="0" y="0" font-family="Virgil, Segoe UI Emoji" font-size="20px" fill="#1e1e1e" text-anchor="start" style="white-space: pre;" direction="ltr" dominant-baseline="text-before-edge">a3=3 切番茄</text></g><g transform="translate(430.27490234375 39.25372314453125) rotate(0 51.3599853515625 12.5)"><text x="0" y="0" font-family="Virgil, Segoe UI Emoji" font-size="20px" fill="#1e1e1e" text-anchor="start" style="white-space: pre;" direction="ltr" dominant-baseline="text-before-edge">a4=2 炒菜</text></g><g transform="translate(89.1519775390625 10) rotate(0 20 12.5)"><text x="0" y="0" font-family="Virgil, Segoe UI Emoji" font-size="20px" fill="#1e1e1e" text-anchor="start" style="white-space: pre;" direction="ltr" dominant-baseline="text-before-edge">开始</text></g><g transform="translate(335.896240234375 11.630279541015625) rotate(0 30 12.5)"><text x="0" y="0" font-family="Virgil, Segoe UI Emoji" font-size="20px" fill="#1e1e1e" text-anchor="start" style="white-space: pre;" direction="ltr" dominant-baseline="text-before-edge">可以炒</text></g><g transform="translate(152.66241455078125 230.29913330078125) rotate(0 30 12.5)"><text x="0" y="0" font-family="Virgil, Segoe UI Emoji" font-size="20px" fill="#1e1e1e" text-anchor="start" style="white-space: pre;" direction="ltr" dominant-baseline="text-before-edge">可以切</text></g><g transform="translate(621.1519775390625 12) rotate(0 20 12.5)"><text x="0" y="0" font-family="Virgil, Segoe UI Emoji" font-size="20px" fill="#1e1e1e" text-anchor="start" style="white-space: pre;" direction="ltr" dominant-baseline="text-before-edge">结束</text></g></svg>
