<svg width="814" height="621" xmlns="http://www.w3.org/2000/svg" xmlns:xlink="http://www.w3.org/1999/xlink" version="1.1" baseProfile="full" viewBox="0 0 814 621">
<rect width="814" height="621" x="0" y="0" id="0" fill="none"></rect>
<polyline points="441.7 113.5 444.3 98.8 459.3 98.8" fill="none" stroke="#5470c6"></polyline>
<polyline points="500.9 147.8 514.5 124.3 529.5 124.3" fill="none" stroke="#91cc75"></polyline>
<polyline points="526.5 210.2 571.7 172.3 586.7 172.3" fill="none" stroke="#fac858"></polyline>
<polyline points="539.8 262.2 609 237 624 237" fill="none" stroke="#ee6666"></polyline>
<polyline points="527.2 310.5 622 310.5 637 310.5" fill="none" stroke="#73c0de"></polyline>
<polyline points="517.2 350.6 609 384 624 384" fill="none" stroke="#3ba272"></polyline>
<polyline points="491.9 381.8 571.7 448.7 586.7 448.7" fill="none" stroke="#fc8452"></polyline>
<polyline points="460.4 402.9 514.5 496.7 529.5 496.7" fill="none" stroke="#9a60b4"></polyline>
<polyline points="424.5 409.8 444.3 522.2 459.3 522.2" fill="none" stroke="#ea7ccc"></polyline>
<polyline points="389.7 408.6 369.7 522.2 354.7 522.2" fill="none" stroke="#5470c6"></polyline>
<polyline points="357.9 395.6 299.5 496.7 284.5 496.7" fill="none" stroke="#91cc75"></polyline>
<polyline points="345.7 361.9 242.3 448.7 227.3 448.7" fill="none" stroke="#fac858"></polyline>
<polyline points="356.4 328.9 205 384 190 384" fill="none" stroke="#ee6666"></polyline>
<polyline points="353.3 310.5 192 310.5 177 310.5" fill="none" stroke="#73c0de"></polyline>
<polyline points="356.6 292.2 205 237 190 237" fill="none" stroke="#3ba272"></polyline>
<polyline points="366 276.1 242.3 172.3 227.3 172.3" fill="none" stroke="#fc8452"></polyline>
<polyline points="380.4 264.5 299.5 124.3 284.5 124.3" fill="none" stroke="#9a60b4"></polyline>
<polyline points="397.9 258.9 369.7 98.8 354.7 98.8" fill="none" stroke="#ea7ccc"></polyline>
<path d="M407 115.5641A5 5 0 0 1 412.1282 110.5658A200 200 0 0 1 470.5626 120.8693A5 5 0 0 1 473.672 127.3202L425.7332 259.0309A5 5 0 0 1 419.7589 262.1553A50 50 0 0 0 411.5455 260.707A5 5 0 0 1 407 255.7277Z" fill="#5470c6"></path>
<path d="M469.5249 138.7142A5 5 0 0 1 476.0613 135.7743A187.879 187.879 0 0 1 523.7862 163.3283A5 5 0 0 1 524.5084 170.4589L442.2069 268.542A5 5 0 0 1 435.5243 269.4346A50 50 0 0 0 428.3015 265.2646A5 5 0 0 1 425.7332 259.0309Z" fill="#91cc75"></path>
<path d="M504.033 194.8606A5 5 0 0 1 511.2022 194.3528A156.0393 156.0393 0 0 1 539.4772 228.0496A5 5 0 0 1 537.7322 235.0217L454.4342 283.1139A5 5 0 0 1 447.8492 281.667A50 50 0 0 0 442.4883 275.2781A5 5 0 0 1 442.2069 268.542Z" fill="#fac858"></path>
<path d="M525.0048 242.3699A5 5 0 0 1 531.9236 244.3605A141.3519 141.3519 0 0 1 545.2107 280.8664A5 5 0 0 1 541.1901 286.8387L460.9401 300.9889A5 5 0 0 1 455.2472 297.3771A50 50 0 0 0 452.3947 289.54A5 5 0 0 1 454.4342 283.1139Z" fill="#ee6666"></path>
<path d="M520.3278 290.5172A5 5 0 0 1 526.1531 294.7876A120.1847 120.1847 0 0 1 526.1531 326.2124A5 5 0 0 1 520.3278 330.4828L460.9401 320.0111A5 5 0 0 1 456.8258 314.6701A50 50 0 0 0 456.8258 306.3299A5 5 0 0 1 460.9401 300.9889Z" fill="#73c0de"></path>
<path d="M517.4472 329.9748A5 5 0 0 1 521.4594 335.9855A117.2624 117.2624 0 0 1 511.0628 364.55A5 5 0 0 1 504.1256 366.5755L454.4342 337.8861A5 5 0 0 1 452.3947 331.46A50 50 0 0 0 455.2472 323.6229A5 5 0 0 1 460.9401 320.0111Z" fill="#3ba272"></path>
<path d="M498.5742 363.3704A5 5 0 0 1 500.2814 370.4022A110.8589 110.8589 0 0 1 482.1903 391.9623A5 5 0 0 1 474.9688 391.5021L442.2069 352.458A5 5 0 0 1 442.4883 345.7219A50 50 0 0 0 447.8492 339.333A5 5 0 0 1 454.4342 337.8861Z" fill="#fc8452"></path>
<path d="M472.3033 388.3255A5 5 0 0 1 471.4949 395.523A106.7169 106.7169 0 0 1 448.3846 408.8657A5 5 0 0 1 441.7472 405.9671L425.7332 361.9691A5 5 0 0 1 428.3015 355.7354A50 50 0 0 0 435.5243 351.5654A5 5 0 0 1 442.2069 352.458Z" fill="#9a60b4"></path>
<path d="M439.737 400.4441A5 5 0 0 1 436.5012 406.9355A100.847 100.847 0 0 1 412.2608 411.2097A5 5 0 0 1 407 406.2165L407 365.2723A5 5 0 0 1 411.5455 360.293A50 50 0 0 0 419.7589 358.8447A5 5 0 0 1 425.7332 361.9691Z" fill="#ea7ccc"></path>
<path d="M407 404.9442A5 5 0 0 1 401.7357 409.9372A99.5765 99.5765 0 0 1 377.9373 405.7409A5 5 0 0 1 374.6982 399.2485L388.2668 361.9691A5 5 0 0 1 394.2411 358.8447A50 50 0 0 0 402.4545 360.293A5 5 0 0 1 407 365.2723Z" fill="#5470c6"></path>
<path d="M375.1595 397.9812A5 5 0 0 1 368.5014 400.8711A98.2297 98.2297 0 0 1 347.9857 389.0263A5 5 0 0 1 347.1593 381.8153L371.7931 352.458A5 5 0 0 1 378.4757 351.5654A50 50 0 0 0 385.6985 355.7354A5 5 0 0 1 388.2668 361.9691Z" fill="#91cc75"></path>
<path d="M358.8916 367.8333A5 5 0 0 1 351.5993 368.2269A80.0102 80.0102 0 0 1 340.5299 355.0349A5 5 0 0 1 342.1838 347.9217L359.5658 337.8861A5 5 0 0 1 366.1508 339.333A50 50 0 0 0 371.5117 345.7219A5 5 0 0 1 371.7931 352.458Z" fill="#fac858"></path>
<path d="M362.0574 336.4476A1.9312 1.9312 0 0 1 359.3845 335.6779A53.8624 53.8624 0 0 1 354.3404 321.8193A1.9312 1.9312 0 0 1 355.8931 319.5115L355.8931 319.5115A1.9312 1.9312 0 0 1 358.1166 321.0076A50 50 0 0 0 362.799 333.8724A1.9312 1.9312 0 0 1 362.0574 336.4476Z" fill="#ee6666"></path>
<path d="M355.9655 319.4988A1.855 1.855 0 0 1 353.8062 317.9285A53.71 53.71 0 0 1 353.8062 303.0715A1.855 1.855 0 0 1 355.9655 301.5012L355.9655 301.5012A1.855 1.855 0 0 1 357.4805 303.5846A50 50 0 0 0 357.4805 317.4154A1.855 1.855 0 0 1 355.9655 319.4988Z" fill="#73c0de"></path>
<path d="M356.0017 301.5076A1.8169 1.8169 0 0 1 354.5401 299.3403A53.6337 53.6337 0 0 1 359.6401 285.3282A1.8169 1.8169 0 0 1 362.1529 284.6075L362.1529 284.6075A1.8169 1.8169 0 0 1 362.8488 287.0337A50 50 0 0 0 358.0943 300.0964A1.8169 1.8169 0 0 1 356.0017 301.5076Z" fill="#3ba272"></path>
<path d="M362.1741 284.6198A1.7915 1.7915 0 0 1 361.5503 282.1195A53.5829 53.5829 0 0 1 371.1584 270.669A1.7915 1.7915 0 0 1 373.729 270.8492L373.729 270.8492A1.7915 1.7915 0 0 1 373.555 273.3324A50 50 0 0 0 364.5894 284.0172A1.7915 1.7915 0 0 1 362.1741 284.6198Z" fill="#fc8452"></path>
<path d="M373.8713 271.0188A1.5628 1.5628 0 0 1 374.1007 268.7872A53.1255 53.1255 0 0 1 387.3253 261.152A1.5628 1.5628 0 0 1 389.3726 262.0691L389.3726 262.0691A1.5628 1.5628 0 0 1 388.4828 264.0553A50 50 0 0 0 376.0362 271.2413A1.5628 1.5628 0 0 1 373.8713 271.0188Z" fill="#9a60b4"></path>
<path d="M389.4995 262.4178A1.1816 1.1816 0 0 1 390.2315 260.8943A52.3632 52.3632 0 0 1 405.7911 258.1508A1.1816 1.1816 0 0 1 407 259.332L407 259.332A1.1816 1.1816 0 0 1 405.8457 260.5133A50 50 0 0 0 390.9883 263.1331A1.1816 1.1816 0 0 1 389.4995 262.4178Z" fill="#ea7ccc"></path>
<text dominant-baseline="central" text-anchor="start" style="font-size:12px;font-family:sans-serif;" transform="translate(464.3344 98.7663)" fill="#333" stroke="rgb(255,255,255)" stroke-width="2" paint-order="stroke" stroke-miterlimit="2">dog</text>
<text dominant-baseline="central" text-anchor="start" style="font-size:12px;font-family:sans-serif;" transform="translate(534.5 124.3045)" fill="#333" stroke="rgb(255,255,255)" stroke-width="2" paint-order="stroke" stroke-miterlimit="2">cat</text>
<text dominant-baseline="central" text-anchor="start" style="font-size:12px;font-family:sans-serif;" transform="translate(591.6996 172.3007)" fill="#333" stroke="rgb(255,255,255)" stroke-width="2" paint-order="stroke" stroke-miterlimit="2">bird</text>
<text dominant-baseline="central" text-anchor="start" style="font-size:12px;font-family:sans-serif;" transform="translate(629.0339 236.9657)" fill="#333" stroke="rgb(255,255,255)" stroke-width="2" paint-order="stroke" stroke-miterlimit="2">horse</text>
<text dominant-baseline="central" text-anchor="start" style="font-size:12px;font-family:sans-serif;" transform="translate(642 310.5)" fill="#333" stroke="rgb(255,255,255)" stroke-width="2" paint-order="stroke" stroke-miterlimit="2">tiger</text>
<text dominant-baseline="central" text-anchor="start" style="font-size:12px;font-family:sans-serif;" transform="translate(629.0339 384.0343)" fill="#333" stroke="rgb(255,255,255)" stroke-width="2" paint-order="stroke" stroke-miterlimit="2">giraffe</text>
<text dominant-baseline="central" text-anchor="start" style="font-size:12px;font-family:sans-serif;" transform="translate(591.6996 448.6993)" fill="#333" stroke="rgb(255,255,255)" stroke-width="2" paint-order="stroke" stroke-miterlimit="2">cow</text>
<text dominant-baseline="central" text-anchor="start" style="font-size:12px;font-family:sans-serif;" transform="translate(534.5 496.6955)" fill="#333" stroke="rgb(255,255,255)" stroke-width="2" paint-order="stroke" stroke-miterlimit="2">elephant</text>
<text dominant-baseline="central" text-anchor="start" style="font-size:12px;font-family:sans-serif;" transform="translate(464.3344 522.2337)" fill="#333" stroke="rgb(255,255,255)" stroke-width="2" paint-order="stroke" stroke-miterlimit="2">zebra</text>
<text dominant-baseline="central" text-anchor="end" style="font-size:12px;font-family:sans-serif;" transform="translate(349.6656 522.2337)" fill="#333" stroke="rgb(255,255,255)" stroke-width="2" paint-order="stroke" stroke-miterlimit="2">sheep</text>
<text dominant-baseline="central" text-anchor="end" style="font-size:12px;font-family:sans-serif;" transform="translate(279.5 496.6955)" fill="#333" stroke="rgb(255,255,255)" stroke-width="2" paint-order="stroke" stroke-miterlimit="2">panda</text>
<text dominant-baseline="central" text-anchor="end" style="font-size:12px;font-family:sans-serif;" transform="translate(222.3004 448.6993)" fill="#333" stroke="rgb(255,255,255)" stroke-width="2" paint-order="stroke" stroke-miterlimit="2">bear</text>
<text dominant-baseline="central" text-anchor="end" style="font-size:12px;font-family:sans-serif;" transform="translate(184.9661 384.0343)" fill="#333" stroke="rgb(255,255,255)" stroke-width="2" paint-order="stroke" stroke-miterlimit="2">antelope</text>
<text dominant-baseline="central" text-anchor="end" style="font-size:12px;font-family:sans-serif;" transform="translate(172 310.5)" fill="#333" stroke="rgb(255,255,255)" stroke-width="2" paint-order="stroke" stroke-miterlimit="2">chimpanzee</text>
<text dominant-baseline="central" text-anchor="end" style="font-size:12px;font-family:sans-serif;" transform="translate(184.9661 236.9657)" fill="#333" stroke="rgb(255,255,255)" stroke-width="2" paint-order="stroke" stroke-miterlimit="2">rhino</text>
<text dominant-baseline="central" text-anchor="end" style="font-size:12px;font-family:sans-serif;" transform="translate(222.3004 172.3007)" fill="#333" stroke="rgb(255,255,255)" stroke-width="2" paint-order="stroke" stroke-miterlimit="2">otter</text>
<text dominant-baseline="central" text-anchor="end" style="font-size:12px;font-family:sans-serif;" transform="translate(279.5 124.3045)" fill="#333" stroke="rgb(255,255,255)" stroke-width="2" paint-order="stroke" stroke-miterlimit="2">bobcat</text>
<text dominant-baseline="central" text-anchor="end" style="font-size:12px;font-family:sans-serif;" transform="translate(349.6656 98.7663)" fill="#333" stroke="rgb(255,255,255)" stroke-width="2" paint-order="stroke" stroke-miterlimit="2">hippopotamus</text>
<path d="M-120.4249 -5l240.8498 0l0 28l-240.8498 0Z" transform="translate(407 5)" fill="rgb(0,0,0)" fill-opacity="0" stroke="#ccc" stroke-width="0"></path>
<text dominant-baseline="central" text-anchor="middle" style="font-size:18px;font-family:sans-serif;font-weight:bold;" xml:space="preserve" y="9" transform="translate(407 5)" fill="#464646">Image quantity distribution</text>
</svg>