<?xml version="1.0" encoding="UTF-8"?>
<svg width="290.697418px" height="54px" viewBox="0 0 290.697418 54" version="1.1" xmlns="http://www.w3.org/2000/svg" xmlns:xlink="http://www.w3.org/1999/xlink">
    <title>rainbow-title</title>
    <g id="logo" stroke="none" stroke-width="1" fill="none" fill-rule="evenodd">
        <g id="rainbow-title" transform="translate(-0.0051, 0)" fill-rule="nonzero">
            <g id="编组">
                <rect id="矩形" fill-opacity="0" fill="#333333" x="0" y="0" width="12.2205036" height="14.4465495"></rect>
                <g transform="translate(0.0051, 0.0135)" id="路径">
                    <path d="M25.795467,1.43118054 C24.2617776,-0.0918132406 21.9109036,-0.437657929 20.0016552,0.578834125 C17.7272874,1.83898163 16.7690524,4.60497304 17.7782799,6.99671372 L22.293832,18.0049844 L22.3300433,17.9183051 L27.0375154,29.511661 L27.0013041,29.511661 L30.9845497,39.2847518 C31.7087761,41.0905704 30.9628229,39.2414121 35.4276791,50.188285 C36.6437053,52.494106 39.4596623,53.4428824 41.8285572,52.3449239 C44.1974521,51.2469653 45.2860737,48.4884566 44.3030745,46.07463 C25.7049387,0.152660916 26.7912784,2.40993427 25.795467,1.43118054 Z" fill="#D344B0"></path>
                    <path d="M21.2618093,30.3603958 C21.0506334,29.8476197 20.5502171,29.5125069 19.9944129,29.511661 L18.7451223,29.511661 C18.4954546,29.5119715 18.2620202,29.3882791 18.122525,29.181759 C17.9830299,28.9752388 17.9557869,28.7130027 18.0498649,28.4823444 L19.0601608,25.9903146 C19.1957696,25.6617892 19.1957696,25.293135 19.0601608,24.9646096 L15.0370827,15.1156745 C14.8612228,14.6791417 14.436917,14.3931042 13.9652276,14.3931042 C13.4935382,14.3931042 13.0692323,14.6791417 12.8933724,15.1156745 C13.1178826,14.5594824 0.842243886,44.8719548 0.357012149,46.07463 C-0.298896818,47.6933286 -0.0391459459,49.5380735 1.03841912,50.9139672 C2.11598419,52.2898609 3.84765569,52.9878723 5.58112971,52.7450674 C7.31460373,52.5022624 8.78652433,51.3555289 9.44243324,49.7368303 L12.9150992,41.1591915 C13.3737077,40.0289821 14.4736641,39.2890297 15.6961288,39.2883634 L23.4055196,39.2883634 C23.740198,39.2885869 24.0531045,39.1229033 24.2404228,38.8462833 C24.4277411,38.5696633 24.4649753,38.2182808 24.3397718,37.9087179 L21.2618093,30.3603958 Z" fill="#FCC048"></path>
                </g>
            </g>
            <g id="编组" transform="translate(47.8313, 0)">
                <rect id="矩形" fill-opacity="0" fill="#333333" x="0.000298538313" y="0.00674580389" width="10.7760499" height="14.4465495"></rect>
                <g id="路径">
                    <path d="M34.2453473,0.00674580389 C31.600696,0.181136689 29.5541722,2.38723631 29.5849499,5.03053338 L29.5849499,20.2933129 C29.5804167,22.0055468 30.0844294,23.6807649 31.0334029,25.1076255 L37.5876524,34.9096093 C37.8229657,35.280767 38.2773304,35.4501751 38.6990521,35.3239903 C39.1207738,35.1978055 39.4066085,34.8069198 39.3982186,34.3678637 L39.3982186,4.89329116 C39.4010692,3.55195171 38.8505609,2.26850711 37.8759251,1.34424537 C36.9012894,0.41998363 35.5883603,-0.0636975311 34.2453473,0.00674580389 Z" fill="#F65349"></path>
                    <path d="M9.66872194,3.22110306 C8.87931509,2.04009764 8.27458598,0.91687842 6.56179038,0.29928843 C5.05374469,-0.241397152 3.37594924,-0.0129228561 2.06842096,0.911174351 C0.760892688,1.83527156 -0.0113310213,3.3383513 0,4.93663081 L0,47.7923198 C-0.0284297158,50.4355354 2.01964525,52.640007 4.66431702,52.8124957 C6.00336842,52.8767312 7.31032178,52.3908991 8.28057975,51.4682269 C9.25083772,50.5455548 9.79963981,49.266646 9.79908271,47.929562 L9.79908271,23.8218826 C9.80064043,23.3941888 10.0804515,23.0170341 10.4900758,22.8904993 C10.8997001,22.7639645 11.3442625,22.917357 11.5879221,23.2693021 C31.4570754,52.1912941 30.6495628,51.2486567 31.7395237,51.9818191 C32.4942125,52.4955929 33.3825053,52.7792017 34.2960431,52.7980492 C37.9171755,52.8811168 40.0898549,48.7096757 38.0583997,45.6903468 L9.66872194,3.22110306 Z" fill="#07B4E5"></path>
                </g>
            </g>
            <g id="编组" transform="translate(90.348, 0)">
                <rect id="矩形" fill-opacity="0" fill="#333333" x="0" y="0" width="2.68037611" height="14.4465495"></rect>
                <path d="M4.89939209,52.8129732 C6.1994193,52.8129732 7.44614793,52.2976468 8.36506634,51.3804605 C9.28398476,50.4632742 9.79974502,49.2194342 9.79878551,47.9228162 L9.79878551,4.88654535 C9.79878551,2.18778088 7.60525162,0 4.89939209,0 C2.19353255,0 0,2.18778088 0,4.88654535 L0,47.9228162 C0,50.6221655 2.1929469,52.8109796 4.89939209,52.8129732 Z" id="路径" fill="#2FC77A"></path>
            </g>
            <g id="编组" transform="translate(103.2373, 1.1866)">
                <rect id="矩形" fill-opacity="0" fill="#333333" x="0.0917458756" y="0.00113415196" width="9.73246224" height="14.4465495"></rect>
                <g id="路径">
                    <path d="M14.594381,29.2553968 C16.7670604,29.9163264 18.834727,30.3713927 20.5909762,31.0612155 C27.1560891,33.6760409 25.5808966,39.2415741 21.2862336,41.3724402 C20.7325104,41.6430097 20.3793374,42.2021318 20.3737082,42.8170951 L20.3737082,49.7658854 C20.3756318,50.2778935 20.6177701,50.7594775 21.0280293,51.0672516 C21.4382884,51.3750256 21.9693519,51.4734929 22.4631016,51.333336 C37.0779918,47.3135836 40.0328358,28.2947013 24.2265931,22.003229 C21.8402668,21.0533683 19.519121,20.5405158 17.4442122,19.9120909 C13.6601288,18.7816484 11.3715732,17.0516741 10.9985965,15.0941667 C10.7052848,13.5447743 11.5888411,11.7822952 12.6136216,10.9769001 C12.9991235,10.6729596 13.4139737,10.4080065 13.8520488,10.1859515 C14.3965135,9.90898965 14.7392518,9.35088421 14.7392263,8.74129657 L14.7392263,1.80695283 C14.7426657,1.29261083 14.503391,0.806598235 14.0932314,0.49481363 C13.6830718,0.183029024 13.1497824,0.0817737099 12.653454,0.221444031 C10.4311803,0.84008126 8.35289987,1.88938291 6.53736148,3.30939398 C3.18057178,5.95311253 0.283665891,11.19721 1.3700056,16.9108203 C1.9964615,20.2263034 4.54573868,26.2180098 14.594381,29.2553968 Z" fill="#D344B0"></path>
                    <path d="M22.4051635,0.0480854377 C21.9164692,-0.0727486362 21.399207,0.0369480578 21.0020825,0.345639239 C20.604958,0.654330421 20.3719655,1.12781864 20.3700868,1.6299826 L20.3700868,8.47042377 C20.36972,9.12639021 20.7656197,9.71796998 21.3731408,9.96925328 C22.7363565,10.5031482 23.8767811,11.4839147 24.606812,12.750214 C25.8947451,15.1238501 28.8680922,16.006724 31.2479687,14.7221679 C33.6278451,13.4376119 34.51304,10.4720613 33.225107,8.09842512 C31.1610615,4.28453607 27.3407669,1.24714904 22.4051635,0.0480854377 Z" fill="#F65349"></path>
                    <path d="M14.7428474,50.0728746 L14.7428474,43.3191127 C14.738305,42.6186637 14.2890899,41.9980814 13.6239175,41.7733319 C11.7481709,41.1160139 10.2019474,39.9169503 9.39805604,38.3892277 C8.67565981,36.7352344 7.09887488,35.6122984 5.29583552,35.4677569 C3.49279615,35.3232153 1.75642597,36.1805506 0.778432242,37.6982312 C-0.199561487,39.2159118 -0.260292903,41.1473739 0.6204312,42.7231925 C2.92347138,47.2738556 7.45350797,50.5279409 12.7439823,51.6475485 C13.2262515,51.7553187 13.7315332,51.6404759 14.1193705,51.3349439 C14.5072078,51.0294119 14.7362569,50.5657606 14.7428474,50.0728746 L14.7428474,50.0728746 Z" fill="#FCC048"></path>
                </g>
            </g>
            <g id="编组" transform="translate(141.1319, 0)">
                <rect id="矩形" fill-opacity="0" fill="#333333" x="0" y="0" width="2.68037611" height="14.4465495"></rect>
                <path d="M4.89939209,52.8129732 C6.1994193,52.8129732 7.44614793,52.2976468 8.36506634,51.3804605 C9.28398476,50.4632742 9.79974502,49.2194342 9.79878551,47.9228162 L9.79878551,4.88654535 C9.79878551,2.18778088 7.60525162,0 4.89939209,0 C2.19353255,0 0,2.18778088 0,4.88654535 L0,47.9228162 C0,50.6221655 2.1929469,52.8109796 4.89939209,52.8129732 Z" id="路径" fill="#2FC77A"></path>
            </g>
            <g id="编组" transform="translate(154.1231, 0)">
                <rect id="矩形" fill-opacity="0" fill="#333333" x="0" y="0.000532652845" width="14.606187" height="14.4465495"></rect>
                <g transform="translate(0.0036, 0)" id="路径">
                    <path d="M21.0894824,52.0297805 C21.5700259,52.1262601 22.0686068,52.0023546 22.4475807,51.6922709 C22.8265546,51.3821871 23.0458384,50.9187219 23.044935,50.4298252 L23.044935,43.7266262 C23.0491952,43.007506 22.5771031,42.3718527 21.8861316,42.1663989 C14.7271661,40.111564 9.79633966,33.5787747 9.79633966,26.1487872 C9.79633966,18.7187996 14.7271661,12.1860103 21.8861316,10.1311755 C22.5772723,9.92818216 23.0500067,9.29313755 23.044935,8.57455976 L23.044935,1.87136081 C23.0458384,1.38246403 22.8265546,0.918998835 22.4475807,0.608915091 C22.0686068,0.298831348 21.5700259,0.174925847 21.0894824,0.271405455 C8.80306186,2.82981226 0,13.6321679 0,26.150593 C0,38.6690181 8.80306186,49.4713737 21.0894824,52.0297805 Z" fill="#07B4E5"></path>
                    <path d="M47.8641351,23.7723298 L35.0163575,23.7723298 C32.3688946,23.7454953 30.1613094,25.785605 29.9866046,28.4205071 C29.9201516,29.7563083 30.4059654,31.0608273 31.3306121,32.0294677 C32.2552588,32.9981081 33.5377939,33.5460745 34.8787545,33.5454205 L39.8288424,33.5454205 C40.1836549,33.5449527 40.5108739,33.7362427 40.6838243,34.0452372 C40.8567747,34.3542317 40.8483084,34.7324275 40.6617029,35.0334151 C38.2484952,38.8538954 34.3846974,41.5346502 29.9540145,42.4625531 C29.2036339,42.6231537 28.668756,43.2862304 28.6721177,44.0516736 L28.6721177,50.6681932 C28.6728752,51.1442232 28.8819099,51.596217 29.2444859,51.9057848 C29.6070618,52.2153526 30.0870556,52.3516524 30.5587436,52.2789835 C42.3436607,50.4725658 51.465469,41.0346508 52.8431921,29.2222906 C53.0070175,27.8178514 52.5528883,26.4114859 51.5980786,25.3663732 C50.6432688,24.3212605 49.2813907,23.7398664 47.8641351,23.7723298 L47.8641351,23.7723298 Z" fill="#F65349"></path>
                    <path d="M29.9540145,9.83863283 C33.056706,10.4854047 35.9089988,12.0043097 38.1739849,14.2159373 C40.1238306,16.0075394 43.1488268,15.9271936 45.0003035,14.0346261 C46.8517802,12.1420586 46.8579843,9.12393095 45.0143039,7.22380738 C41.0702103,3.37085838 36.0125438,0.850550939 30.5551224,0.0185908397 C30.083376,-0.0530086788 29.6037909,0.084286405 29.2419333,0.394529076 C28.8800758,0.704771748 28.6721177,1.15706672 28.6721177,1.63299274 L28.6721177,8.24951239 C28.668756,9.01495553 29.2036339,9.67803232 29.9540145,9.83863283 L29.9540145,9.83863283 Z" fill="#07B4E5"></path>
                </g>
            </g>
            <g id="编组" transform="translate(210.2216, 1.181)">
                <rect id="矩形" fill-opacity="0" fill="#333333" x="0" y="0.00600673026" width="10.9075545" height="14.4465495"></rect>
                <g id="路径">
                    <path d="M4.89939209,52.8189799 C6.1994193,52.8189799 7.44614793,52.3036535 8.36506634,51.3864672 C9.28398476,50.4692809 9.79974502,49.225441 9.79878551,47.9288229 L9.79878551,4.89255208 C9.79878551,2.19378761 7.60525162,0.00600673026 4.89939209,0.00600673026 C2.19353255,0.00600673026 0,2.19378761 0,4.89255208 L0,47.9288229 C0,50.6281722 2.1929469,52.8169863 4.89939209,52.8189799 Z" fill="#D344B0"></path>
                    <path d="M34.7411439,0.00600673026 C32.0964926,0.180397616 30.0499688,2.38649723 30.0807465,5.0297943 L30.0807465,19.2379757 C30.0807465,20.1375639 29.349569,20.8668241 28.4476158,20.8668241 L17.0627757,20.8668241 C16.1608225,20.8668241 15.429645,21.5960844 15.429645,22.4956726 L15.429645,28.9966199 C15.429645,29.4286173 15.6017065,29.8429213 15.9079779,30.1483896 C16.2142493,30.453858 16.6296425,30.6254683 17.0627757,30.6254683 L28.4476158,30.6254683 C28.880749,30.6254683 29.2961422,30.7970786 29.6024136,31.102547 C29.908685,31.4080153 30.0807465,31.8223193 30.0807465,32.2543168 L30.0807465,47.9143764 C30.0801894,49.2514604 30.6289915,50.5303691 31.5992495,51.4530413 C32.5695075,52.3757135 33.8764608,52.8615456 35.2155122,52.7973101 C37.860184,52.6248214 39.908259,50.4203497 39.8795307,47.7771341 L39.8795307,4.89255208 C39.8821727,3.55385378 39.3336353,2.2727825 38.36222,1.34897803 C37.3908047,0.425173565 36.081715,-0.06033681 34.7411439,0.00600673026 Z" fill="#07B4E5"></path>
                </g>
            </g>
            <g id="编组" transform="translate(253.3288, 0.5905)">
                <rect id="矩形" fill-opacity="0" fill="#333333" x="0" y="0" width="10.2172844" height="14.4465495"></rect>
                <g id="路径">
                    <path d="M15.4224027,15.3891828 C14.9889747,15.3882251 14.573021,15.5595266 14.2665403,15.8652036 C13.9600596,16.1708807 13.7883078,16.5857437 13.789268,17.0180353 L13.789268,47.9589326 C13.7897056,49.2953893 14.3389413,50.5733499 15.3090857,51.4952317 C16.2792301,52.4171135 17.5856145,52.90246 18.9240377,52.8382546 C21.5687095,52.665766 23.6167845,50.4612943 23.5880562,47.8180787 L23.5880562,17.0180353 C23.5880562,16.1184471 22.8568787,15.3891828 21.9549255,15.3891828 L15.4224027,15.3891828 Z" fill="#07B4E5"></path>
                    <path d="M37.3737084,4.88654535 C37.3737084,2.18778088 35.1801745,0 32.474315,0 L4.89939209,0 C2.19353255,0 0,2.18778088 0,4.88654535 C0,7.58530983 2.19353255,9.77309205 4.89939209,9.77309205 L32.474315,9.77309205 C33.7740092,9.77404985 35.0207475,9.25952689 35.9397703,8.34291387 C36.8587931,7.42630085 37.3746688,6.18283156 37.3737084,4.88654535 L37.3737084,4.88654535 Z" fill="#2FC77A"></path>
                </g>
            </g>
        </g>
    </g>
</svg>