<?xml version="1.0" encoding="UTF-8"?>
<svg width="425px" height="150px" viewBox="0 0 425 150" version="1.1" xmlns="http://www.w3.org/2000/svg" xmlns:xlink="http://www.w3.org/1999/xlink">
    <title>编组</title>
    <g id="控件" stroke="none" stroke-width="1" fill="none" fill-rule="evenodd">
        <g id="logo-text" fill-rule="nonzero">
            <g id="编组">
                <g transform="translate(154.6356, 40.8079)" fill="#333333" id="形状">
                    <path d="M52.6159109,54.255 L44.1144534,54.255 L40.19417,40.365 L15.4708502,40.365 L8.66668016,54.255 L0,54.255 L26.7210121,0 L37.3703644,0 L52.6159109,54.255 Z M31.1519838,8.28 L19.16583,32.745 L38.0462753,32.745 L31.1519838,8.28 Z M56.6863968,16.56 L52.6159109,54.255 L60.3963968,54.255 L63.5806883,24.24 L82.4461134,24.24 L79.1867206,54.255 L87.0423077,54.255 L90.9625911,16.56 L56.6863968,16.56 Z M95.9192713,7.695 L103.609636,7.695 L104.435749,0 L96.7303644,0 L95.9192713,7.695 Z M98.6529555,54.255 L103.24915,11.46 L95.468664,11.46 L90.9625911,54.255 L98.6529555,54.255 Z M148.024494,0 L110.128421,0 L107.094332,29.94 L137.360121,29.94 L135.662834,46.635 L104.435749,46.635 L105.472146,54.255 L142.467004,54.255 L145.801498,22.32 L115.685911,22.32 L117.157895,7.62 L139.583117,7.62 L139.14753,11.835 L146.762794,11.835 L148.024494,0 Z M152.981174,7.695 L160.686559,7.695 L161.497652,0 L153.792267,0 L152.981174,7.695 Z M155.714858,54.255 L160.311053,11.46 L152.530567,11.46 L148.024494,54.255 L155.714858,54.255 Z M161.497652,60.165 L162.534049,67.86 L195.683725,67.86 L201.015911,16.56 L166.153927,16.56 L162.083441,54.255 L189.390243,54.255 L188.804453,60.165 L161.497652,60.165 Z M190.216356,46.635 L170.67502,46.635 L173.033198,24.24 L192.499433,24.24 L190.216356,46.635 Z M206.783684,0 L201.015911,54.255 L208.856478,54.255 L211.965668,24.18 L231.431903,24.18 L228.247611,54.255 L235.952996,54.255 L239.948381,16.485 L212.776761,16.485 L214.56417,0 L206.783684,0 Z M251.859433,24.18 L248.675142,54.255 L263.334899,54.255 L265.918381,46.635 L257.191619,46.635 L259.639919,24.18 L269.553279,24.18 L270.364372,16.485 L260.451012,16.485 L261.412308,6.81 L253.706923,6.81 L252.670526,16.485 L243.718462,16.485 L242.907368,24.18 L251.859433,24.18 Z"></path>
                </g>
                <g>
                    <rect id="矩形" fill-opacity="0" fill="#333333" x="0" y="0" width="90.1214575" height="109.475733"></rect>
                    <g id="路径">
                        <polygon fill="#1F63EA" points="61.7181781 106.755 37.4604858 64.815 30.8515789 53.385 24.978664 43.2 0 43.2 30.8515789 96.615 61.7181781 150 92.6148178 96.615 123.481417 43.2 98.502753 43.2 92.6148178 53.385 85.9758704 64.815"></polygon>
                        <polygon fill="#7385FB" points="61.7181781 43.2 98.502753 43.2 123.481417 0 61.7181781 21.615 0 0 24.978664 43.2"></polygon>
                    </g>
                </g>
            </g>
        </g>
    </g>
</svg>