<?xml version="1.0" encoding="UTF-8"?>
<svg width="1024px" height="935.393273px" viewBox="0 0 1024 935.393273" version="1.1" xmlns="http://www.w3.org/2000/svg" xmlns:xlink="http://www.w3.org/1999/xlink">
    <title>bingdundun</title>
    <g id="é¡µé¢-1" stroke="none" stroke-width="1" fill="none" fill-rule="evenodd">
        <g id="bingdundun" fill-rule="nonzero">
            <path d="M238.597024,82.8334772 C232.876003,15.3856539 325.114917,-26.0666541 373.994515,18.5974556 C486.307186,19.0992987 598.920964,40.0763752 710.631422,22.3111003 C781.79289,31.6453975 755.395901,121.977305 762.220977,172.362434 C795.342676,242.620584 810.397994,318.800491 832.27839,392.973024 C883.566838,433.622381 954.627942,461.324166 976.909811,528.169778 C977.712758,576.246427 1071.15609,580.461915 992.567337,595.517233 C986.444843,584.777773 980.322348,573.937944 974.30022,563.198485 C969.883995,554.667138 965.267028,546.23616 960.65007,537.90555 C929.636112,474.27174 862.690132,449.581019 807.788406,412.745675 C802.368491,349.714078 781.592154,282.366622 719.564243,253.66115 C693.468359,224.654571 670.785014,190.729922 635.957045,171.459114 C499.154391,72.194386 247.730584,115.654071 187.00747,284.27363 C166.3315,319.804179 188.211895,383.839464 137.124182,391.868967 C117.351531,399.496994 97.9803564,407.827604 78.2077054,415.556 C102.195844,377.315493 178.275385,371.092627 162.818591,307.559189 C154.588351,221.041296 250.340172,168.849526 238.597024,82.8334772 M287.576992,55.3324307 C276.436058,56.536856 269.410243,63.2615652 266.29881,75.4061877 C246.024316,78.5176206 258.771151,140.947005 276.335688,116.657759 C293.799856,94.4762564 374.697096,66.1722591 347.396789,51.8195231 C339.969499,33.0505601 295.30539,34.7568305 287.576992,55.3324307 M625.819799,89.7589236 C650.911995,127.99943 689.553977,156.203058 731.809235,173.265754 C747.366396,168.949895 747.567133,105.81793 730.404071,103.509448 C737.128781,43.1878082 583.865646,54.3287425 625.819799,89.7589236 L625.819799,89.7589236 Z" id="path188" fill="#E7ECED"></path>
            <path d="M287.576992,55.3324307 C295.30539,34.7568305 339.969497,33.0505601 347.396789,51.8195231 C327.523769,54.0276367 307.55038,56.536856 287.576992,55.3324307 Z" id="path192" fill="#91918F"></path>
            <path d="M266.29881,75.4061877 C269.410243,63.2615652 276.436058,56.536856 287.576992,55.3324307 C307.55038,56.536856 327.523769,54.0276367 347.396789,51.8195231 C374.697098,66.1722591 293.799858,94.4762564 276.335688,116.657759 C272.421305,103.107974 269.209503,89.2570804 266.29881,75.4061877 L266.29881,75.4061877 Z" id="path194" fill="#222223"></path>
            <path d="M625.819799,89.7589236 C583.865646,54.3287425 737.128781,43.1878082 730.404071,103.509448 L721.170143,103.910922 C692.163563,94.9780995 646.897242,48.7080901 625.819799,89.7589236 L625.819799,89.7589236 Z" id="path196" fill="#8D8E8E"></path>
            <path d="M276.335688,116.657759 C258.77115,140.947005 246.024314,78.5176206 266.29881,75.4061877 C269.209503,89.2570804 272.421305,103.107972 276.335688,116.657759 Z" id="path198" fill="#858586"></path>
            <path d="M625.819799,89.7589236 C646.897244,48.7080901 692.163565,94.9780995 721.170143,103.910922 C725.084526,126.895373 728.597433,150.080563 731.809235,173.265754 C689.553975,156.20306 650.911993,127.999432 625.819799,89.7589236 Z" id="path200" fill="#121213"></path>
            <path d="M721.170143,103.910922 L730.404071,103.509448 C747.567135,105.81793 747.366396,168.949895 731.809235,173.265754 C728.597433,150.080563 725.084526,126.895375 721.170143,103.910922 Z" id="path208" fill="#706F70"></path>
            <path d="M187.00747,284.27363 C247.730584,115.654071 499.154393,72.194386 635.957045,171.459114 C630.534845,182.730899 621.235705,191.673751 609.760793,196.65168 C510.194959,153.994948 384.031395,124.988368 288.982155,193.540247 C240.303295,207.892984 242.310669,288.087643 187.00747,284.27363 L187.00747,284.27363 Z" id="path212" fill="#D6CCC6"></path>
            <path d="M288.982155,193.540247 C384.031395,124.988368 510.194959,153.994946 609.760793,196.65168 C682.628531,239.60952 746.362709,312.276522 740.340583,401.905847 C722.073462,452.391345 692.063197,503.378688 640.473641,525.359451 C663.7592,495.048077 700.79528,468.45035 700.694912,426.496199 C727.995221,326.42852 638.867741,230.676699 546.126983,207.391141 C416.751618,161.422236 233.478217,195.146149 206.679751,350.918504 C197.947667,380.92877 198.44951,412.444568 202.665,443.057048 C187.107839,461.324166 195.036973,484.910831 196.943979,506.189014 C192.929228,504.78385 184.899725,502.174262 180.884973,500.869469 C175.063583,498.661355 163.521172,494.14476 157.699784,491.936646 C183.193456,472.465101 168.539612,439.945615 168.338876,413.247518 C173.558052,390.865279 152.580977,393.274129 137.124182,391.868967 C188.211894,383.839464 166.3315,319.804179 187.00747,284.27363 C242.310671,288.087643 240.303295,207.892984 288.982155,193.540247 L288.982155,193.540247 Z" id="path220" fill="#97C1D1"></path>
            <path d="M635.957045,171.459114 C670.785014,190.72992 693.468359,224.654571 719.564243,253.66115 C805.279187,390.664541 748.570823,610.371812 575.535037,640.281711 C486.809031,671.596773 544.72182,633.356265 561.1823,615.791727 C658.540024,588.591786 741.344271,506.991964 740.340583,401.905847 C746.362709,312.276522 682.628531,239.60952 609.760793,196.65168 C621.235705,191.673751 630.534845,182.730899 635.957045,171.459114 L635.957045,171.459114 Z" id="path224" fill="#BACAB4"></path>
            <path d="M206.679751,350.918504 C233.478217,195.146149 416.751618,161.422236 546.126983,207.391141 C638.867741,230.676699 727.995221,326.42852 700.694912,426.496199 C694.27131,411.842358 688.650658,396.887407 681.223368,382.735409 C679.5171,380.226189 676.305298,375.107382 674.599028,372.59816 C654.726008,303.644806 541.911493,228.067109 491.82747,307.258082 C487.210505,371.795212 532.476827,437.13529 589.084822,466.342606 C614.678862,471.862889 663.357723,470.758832 627.32533,491.936646 C518.625936,577.350482 367.470546,539.411081 259.072258,474.472477 C226.552771,479.591284 215.411836,424.288084 249.336484,434.626071 C294.903913,439.142666 328.527455,403.511748 361.147311,377.315493 C374.295622,365.672715 381.92365,349.51334 389.953154,334.257284 L394.168641,326.027043 C394.26901,312.577627 394.570116,285.779161 394.670486,272.329745 C321.401274,209.298148 243.21399,288.388751 216.315153,356.13768 L206.679751,350.918504 M401.696302,353.528092 C382.525864,408.730925 495.340377,377.6166 447.865943,353.327354 C446.46078,335.461711 402.69999,335.361342 401.696302,353.528092 M388.648358,414.552311 C394.469747,469.554407 472.958137,458.51384 492.128576,414.85342 C466.233429,414.753051 414.543504,414.552311 388.648358,414.552311 Z" id="path228" fill="#E8EEED"></path>
            <path d="M216.315153,356.13768 C243.213988,288.388751 321.401272,209.298146 394.670486,272.329745 C382.024019,287.886906 383.73029,309.86767 394.168641,326.027043 L389.953154,334.257284 C375.098572,304.146647 334.248478,259.081063 305.84411,301.838167 C262.284058,336.26466 317.286153,391.66823 361.147311,377.315493 C328.527455,403.511747 294.903913,439.142665 249.336484,434.626071 C223.340969,416.55969 216.114417,386.147948 216.315153,356.13768 L216.315153,356.13768 Z" id="path236" fill="#101111"></path>
            <path d="M719.564243,253.66115 C781.592154,282.366622 802.368491,349.714076 807.788406,412.745675 C802.769967,419.370015 797.952266,426.29546 793.636407,433.321275 C787.298678,446.54137 781.637261,460.075173 776.674083,473.870265 C758.206226,501.070206 758.708071,521.344701 778.179614,534.794117 C781.993628,536.801493 789.822394,541.016981 793.736776,543.124727 C780.18699,607.661857 744.55607,669.689766 729.701492,735.330949 C748.06898,734.42763 766.235729,731.617305 784.502847,729.409191 C750.277092,780.496902 634.953357,765.541955 650.109044,846.539565 C713.742853,826.265071 779.38404,800.369924 811.702788,736.836483 C757.80475,715.959774 862.589762,690.164997 808.390618,677.6189 C752.083729,649.816746 874.232541,652.526704 854.259153,603.345998 C860.582385,618.20058 866.403775,633.757741 876.842129,646.404206 C892.600028,673.804885 938.368194,676.012998 954.126093,647.608632 C973.196166,623.720861 971.690629,592.104694 974.30022,563.198485 C980.322348,573.937944 986.444843,584.777773 992.567337,595.517233 C1001.29942,651.523014 935.056026,717.565674 881.960938,675.00931 C855.162472,619.60574 810.096888,727.201078 860.883494,727.00034 C813.710165,828.874657 698.587167,867.315903 611.467061,926.934962 C613.775543,921.916522 618.392507,912.08038 620.70099,907.061942 C630.938606,880.865689 626.823485,851.558004 629.433075,824.056957 C637.663315,802.176561 655.127484,785.916819 672.692021,771.363345 C726.690427,738.040908 639.67069,738.040908 611.266324,754.902863 C578.646468,757.512451 543.8185,762.330153 518.525568,785.113868 C506.882788,793.946321 498.853285,806.291682 489.719725,817.432617 L480.485796,818.135198 C463.222364,814.120448 446.059303,809.603853 429.197348,804.284306 C494.938903,791.738207 386.540615,721.37969 493.43337,751.389956 C442.446027,741.051971 421.970794,704.818841 438.632014,654.835184 C342.27798,645.199781 491.927838,776.281414 378.912586,736.033532 C347.597524,752.192906 422.673377,754.501389 386.942089,787.522719 C360.243992,774.775883 334.951059,759.319091 308.554068,746.17078 C318.189472,772.266664 328.928931,798.061442 338.765072,824.257695 C339.066178,831.885721 339.568023,847.141777 339.76876,854.769806 C335.051427,854.970542 325.516393,855.372019 320.79906,855.673125 C332.642576,805.488732 298.918664,768.051176 271.21688,732.721361 C216.917367,666.578333 222.939495,573.737206 180.884973,500.869469 C184.899723,502.174262 192.929226,504.78385 196.943979,506.189014 C280.852283,618.401315 433.11173,621.813854 561.1823,615.791727 C544.72182,633.356265 486.809031,671.596771 575.535037,640.281711 C748.570823,610.371814 805.279187,390.664541 719.564243,253.66115 L719.564243,253.66115 Z" id="path238" fill="#CED9DB"></path>
            <path d="M394.670486,272.329745 C394.570118,285.779161 394.269012,312.577627 394.168641,326.027043 C383.730288,309.867668 382.024019,287.886906 394.670486,272.329745 L394.670486,272.329745 Z" id="path244" fill="#585656"></path>
            <path d="M491.82747,307.258082 C541.911493,228.067111 654.726008,303.644806 674.599028,372.59816 C667.071369,392.872655 667.573212,414.85342 674.39829,435.228283 C662.454405,469.755144 618.091402,464.535968 589.084822,466.342606 C532.476827,437.135288 487.210505,371.79521 491.82747,307.258082 M542.614075,315.68906 C493.533738,343.190107 525.852489,421.979603 580.653844,405.117646 C547.0303,394.679292 502.466561,349.613708 556.866443,323.818932 C557.167548,356.338419 592.396992,325.123726 601.028709,354.832886 C610.965218,319.904548 569.312173,308.26177 542.614075,315.68906 Z" id="path246" fill="#151616"></path>
            <path d="M305.84411,301.838167 C334.248476,259.081065 375.098572,304.146649 389.953154,334.257284 C381.92365,349.51334 374.295624,365.672715 361.147311,377.315493 C317.286153,391.66823 262.284058,336.26466 305.84411,301.838167 C299.721615,334.156915 322.103853,390.363436 357.534035,352.12293 C392.261634,316.793117 333.847002,300.834481 305.84411,301.838167 Z" id="path248" fill="#7B7D7E"></path>
            <path d="M305.84411,301.838167 C333.847002,300.834479 392.261634,316.793117 357.534035,352.12293 C322.103853,390.363436 299.721615,334.156917 305.84411,301.838167 Z" id="path252" fill="#222527"></path>
            <path d="M542.614075,315.68906 C569.312173,308.26177 610.965218,319.90455 601.028709,354.832886 C592.396994,325.123726 557.16755,356.338418 556.866443,323.818932 C502.466561,349.61371 547.030302,394.679294 580.653844,405.117646 C525.852489,421.979601 493.533738,343.190105 542.614075,315.68906 Z" id="path254" fill="#7D7E7E"></path>
            <path d="M401.696302,353.528092 C402.69999,335.361342 446.46078,335.461711 447.865943,353.327354 C432.509519,354.431411 417.052725,354.431411 401.696302,353.528092 Z" id="path260" fill="#818889"></path>
            <path d="M202.665,443.057048 C198.44951,412.444568 197.947667,380.92877 206.679751,350.918504 L216.315153,356.13768 C216.114417,386.147946 223.340969,416.559689 249.336484,434.626071 C215.411834,424.288086 226.552771,479.591286 259.072258,474.472477 C367.470546,539.411081 518.625936,577.350483 627.32533,491.936646 C663.357724,470.758832 614.678862,471.862889 589.084822,466.342606 C618.091402,464.535966 662.454403,469.755144 674.39829,435.228283 C684.535539,419.671121 684.736276,400.299945 681.223368,382.735409 C688.650658,396.887407 694.27131,411.842358 700.695318,426.496199 C700.79528,468.450352 663.7592,495.048079 640.473641,525.359451 C525.049537,593.008011 384.533238,564.101802 262.484796,530.076784 C238.898132,503.780162 219.125481,474.27174 202.665,443.057048 L202.665,443.057048 Z" id="path262" fill="#CCD5DC"></path>
            <path d="M401.696302,353.528092 C417.052725,354.431411 432.509519,354.431411 447.865943,353.327354 C495.340377,377.616601 382.525864,408.730925 401.696302,353.528092 Z" id="path264" fill="#19171B"></path>
            <path d="M674.599028,372.59816 C676.305297,375.10738 679.517098,380.226188 681.223368,382.735409 C684.736276,400.299947 684.535539,419.671121 674.39829,435.228283 C667.573212,414.85342 667.071369,392.872655 674.599028,372.59816 L674.599028,372.59816 Z" id="path268" fill="#6B656B"></path>
            <path d="M78.2077054,415.556 C97.9803564,407.827602 117.351531,399.496994 137.124182,391.868967 C152.580975,393.274129 173.558052,390.865279 168.338876,413.247518 C140.135247,426.998042 109.924241,435.127914 79.1110248,424.288086 L78.2077054,415.556 L78.2077054,415.556 Z" id="path270" fill="#474A4B"></path>
            <path d="M640.473641,525.359451 C692.063197,503.378686 722.073462,452.391344 740.340583,401.905847 C741.344271,506.991964 658.540024,588.591786 561.1823,615.791727 C433.11173,621.813854 280.852283,618.401315 196.943979,506.189014 C195.036971,484.910831 187.107839,461.324166 202.665,443.057048 C219.125481,474.27174 238.898132,503.780162 262.484796,530.076784 C384.533238,564.101802 525.049539,593.008011 640.473641,525.359451 Z" id="path272" fill="#ABAFCB"></path>
            <path d="M79.1110248,424.288086 C109.924241,435.127914 140.135247,426.998042 168.338876,413.247518 C168.539612,439.945615 183.193456,472.465101 157.699784,491.936646 C147.763275,502.375 135.116808,510.60524 127.890254,523.251708 C124.87919,528.87236 118.756693,540.113663 115.645262,545.734315 C91.1552787,517.129213 73.0888979,479.992761 36.2535542,465.338919 C47.8963335,449.882126 59.7398501,429.808369 79.1110248,424.288086 L79.1110248,424.288086 Z" id="path274" fill="#1E1314"></path>
            <path d="M388.648358,414.552311 C414.543504,414.552311 466.233429,414.753049 492.128576,414.85342 C472.958139,458.513842 394.469747,469.554407 388.648358,414.552311 Z" id="path276" fill="#5A373A"></path>
            <path d="M793.636407,433.321275 C797.952266,426.29546 802.769967,419.370013 807.788406,412.745675 C862.690132,449.581019 929.63611,474.27174 960.65007,537.90555 C899.324739,526.162402 863.894558,438.941927 793.636407,433.321275 L793.636407,433.321275 Z" id="path278" fill="#808080"></path>
            <path d="M793.636407,433.321275 C863.894558,438.941927 899.324739,526.162402 960.65007,537.90555 C965.267028,546.236159 969.883995,554.667136 974.30022,563.198485 C971.690629,592.104696 973.196166,623.720861 954.126093,647.608632 C939.371882,619.505371 879.050243,608.1637 876.842129,646.404206 C866.403775,633.757739 860.582385,618.200578 854.259153,603.345998 C847.0326,572.432413 824.549993,550.150543 793.736776,543.124727 C789.822394,541.016983 781.993628,536.801495 778.179614,534.794117 C786.710961,515.121835 784.502847,493.24144 776.674083,473.870265 C781.692522,460.119742 787.212806,446.569956 793.636407,433.321275 Z" id="path280" fill="#090A0A"></path>
            <path d="M18.8897538,486.918207 C21.3989733,474.472477 27.2203629,467.346294 36.2535542,465.338919 C73.0888979,479.992761 91.1552805,517.129213 115.645262,545.734315 C105.206909,588.792525 37.1568718,584.677404 24.8115121,546.035422 C47.795963,547.440584 69.5759904,554.767505 91.2556473,562.194797 C77.6054918,538.206657 61.5464873,515.422942 42.4764183,495.449553 C38.5620363,519.638432 28.3244196,507.895283 18.7893852,494.746971 L18.8897538,486.918207 Z" id="path282" fill="#635D60"></path>
            <path d="M778.179614,534.794117 C758.708069,521.344701 758.206226,501.070204 776.674083,473.870265 C784.502849,493.24144 786.710963,515.121836 778.179614,534.794117 Z" id="path284" fill="#858F90"></path>
            <path d="M5.74144326,556.072299 C-4.89764794,535.797805 -0.882897278,491.434801 18.8897538,486.918207 L18.7893852,494.746971 C19.3915989,511.809664 15.8786913,530.377889 24.8115121,546.035422 C37.1568718,584.677404 105.206909,588.792524 115.645262,545.734315 C118.756695,540.113663 124.879192,528.87236 127.890254,523.251708 C166.3315,610.171076 21.5997105,630.445571 5.74144326,556.072299 L5.74144326,556.072299 Z" id="path286" fill="#D7DADC"></path>
            <path d="M18.7893852,494.746971 C28.3244196,507.895282 38.5620363,519.63843 42.4764183,495.449553 C61.5464873,515.422942 77.6054936,538.206656 91.2556473,562.194797 C69.5759904,554.767507 47.795963,547.440584 24.8115121,546.035422 C15.8786895,530.377891 19.391597,511.809666 18.7893852,494.746971 L18.7893852,494.746971 Z" id="path288" fill="#1C1B1C"></path>
            <path d="M793.736776,543.124727 C824.549993,550.150543 847.0326,572.432413 854.259153,603.345998 C874.232541,652.526704 752.083729,649.816746 808.390618,677.6189 C862.589762,690.164999 757.80475,715.959776 811.702788,736.836483 C779.38404,800.369924 713.742853,826.265071 650.109044,846.539565 C634.953357,765.541955 750.277092,780.496904 784.502847,729.409191 C766.235729,731.617305 748.068978,734.42763 729.701492,735.330949 C744.556072,669.689764 780.18699,607.661855 793.736776,543.124727 Z" id="path290" fill="#E9F1F6"></path>
            <path d="M876.842129,646.404206 C879.050243,608.1637 939.371882,619.505371 954.126093,647.608632 C938.368196,676.012998 892.60003,673.804885 876.842129,646.404206 L876.842129,646.404206 Z" id="path292" fill="#45494C"></path>
            <path d="M378.912586,736.033532 C491.927838,776.281414 342.27798,645.199781 438.632014,654.835184 C421.970796,704.818839 442.446027,741.051971 493.43337,751.389956 C386.540613,721.37969 494.938901,791.738207 429.197348,804.284306 C414.744244,799.767711 400.491876,794.247426 386.942089,787.522719 C422.673377,754.501389 347.597526,752.192906 378.912586,736.033532 Z" id="path294" fill="#8D9A9E"></path>
            <path d="M308.554068,746.17078 C334.951059,759.319091 360.243994,774.775883 386.942089,787.522719 C400.491874,794.247428 414.744244,799.767711 429.197348,804.284306 C446.059303,809.603853 463.222366,814.120446 480.485796,818.135198 C478.679158,830.681297 476.772151,843.227395 474.965515,855.773494 C464.125686,800.269556 381.321438,821.146263 338.765072,824.257695 C328.928931,798.061442 318.189472,772.266664 308.554068,746.17078 Z" id="path298" fill="#4A4E4F"></path>
            <path d="M611.266324,754.902863 C639.67069,738.040908 726.690427,738.040908 672.692021,771.363345 C609.961529,782.905755 551.145421,809.603851 489.920462,826.867283 L489.719725,817.432617 C498.853285,806.291682 506.882788,793.946321 518.525568,785.113868 C551.245792,781.600961 583.163065,772.166295 611.266324,754.902863 L611.266324,754.902863 Z" id="path300" fill="#4B4C4E"></path>
            <path d="M518.525568,785.113868 C543.8185,762.330155 578.64647,757.512453 611.266324,754.902863 C583.163063,772.166295 551.24579,781.600961 518.525568,785.113868 Z" id="path302" fill="#7D7E81"></path>
            <path d="M489.920462,826.867283 C551.145421,809.603851 609.961529,782.905755 672.692021,771.363345 C655.127482,785.916818 637.663313,802.176561 629.433075,824.056957 C620.399883,850.453947 623.611685,879.560895 620.70099,907.061942 C618.392507,912.08038 613.775543,921.916522 611.467061,926.934962 C588.683347,930.146763 566,935.265571 542.814812,935.168068 C528.0606,920.812466 509.994219,910.875956 490.723413,903.85014 C490.1212,878.155731 489.820093,852.461321 489.920462,826.867283 L489.920462,826.867283 Z" id="path304" fill="#080808"></path>
            <path d="M338.765072,824.257695 C381.321436,821.146262 464.125685,800.269556 474.965515,855.773494 L474.363301,863.200783 C462.82089,867.717379 451.077742,871.732129 439.234226,875.144668 C413.941292,875.746882 388.748726,876.449462 363.65653,877.252413 C350.608588,873.036924 342.679454,865.509265 339.76876,854.769806 C339.568023,847.141778 339.066178,831.885723 338.765072,824.257695 L338.765072,824.257695 Z" id="path306" fill="#1C1D1E"></path>
            <path d="M480.485796,818.135198 L489.719725,817.432617 L489.920462,826.867283 C489.820093,852.461323 490.1212,878.155731 490.723413,903.85014 C490.92415,909.972635 491.124888,922.317998 491.225256,928.440493 C475.768463,914.288494 470.147811,892.508469 474.363301,863.200783 L474.965515,855.773494 C476.772153,843.227395 478.67916,830.681297 480.485796,818.135198 L480.485796,818.135198 Z" id="path308" fill="#A9A9A9"></path>
            <path d="M620.70099,907.061942 C623.611683,879.560895 620.399883,850.453947 629.433075,824.056957 C626.823487,851.558004 630.938606,880.865689 620.70099,907.061942 Z" id="path310" fill="#3C3F42"></path>
            <path d="M490.723413,903.85014 C509.994219,910.875956 528.060602,920.812465 542.814812,935.165202 C525.350644,936.269259 507.986843,933.258194 491.225256,928.440493 C491.124888,922.317998 490.92415,909.972635 490.723413,903.85014 L490.723413,903.85014 Z" id="path314" fill="#454545"></path>
        </g>
    </g>
</svg>