<svg width="1205" height="162" viewBox="0 0 1205 162" fill="none" xmlns="http://www.w3.org/2000/svg">
<path d="M182.236 73.1166H191.945C190.327 62.7906 181.389 55.5983 169.754 55.5983C155.988 55.5983 145.663 65.7189 145.663 82.672C145.663 99.317 155.526 109.643 170.037 109.643C183.058 109.643 192.381 101.269 192.381 87.7066V81.3877H171.038V88.8368H183.161C183.007 96.3373 177.998 101.089 170.088 101.089C161.279 101.089 155.243 94.4878 155.243 82.5693C155.243 70.7277 161.381 64.152 169.883 64.152C176.226 64.152 180.541 67.5426 182.236 73.1166Z" fill="#171321"/>
<path d="M198.798 108.924H208.095V69.4691H198.798V108.924ZM203.472 63.2212C206.426 63.2212 208.84 60.9608 208.84 58.1867C208.84 55.3868 206.426 53.1264 203.472 53.1264C200.493 53.1264 198.079 55.3868 198.079 58.1867C198.079 60.9608 200.493 63.2212 203.472 63.2212Z" fill="#171321"/>
<path d="M235.936 69.4691H228.154V60.0164H218.856V69.4691H213.257V76.6614H218.856V98.5977C218.806 106.021 224.199 109.669 231.185 109.463C233.83 109.386 235.654 108.872 236.655 108.538L235.089 101.269C234.575 101.398 233.522 101.629 232.366 101.629C230.029 101.629 228.154 100.807 228.154 97.0565V76.6614H235.936V69.4691Z" fill="#171321"/>
<path d="M243.132 108.924H275.827V100.935H252.66V56.3176H243.132V108.924Z" fill="#171321"/>
<path d="M293.633 109.72C299.823 109.72 303.521 106.818 305.216 103.504H305.524V108.924H314.462V82.5179C314.462 72.0891 305.961 68.9554 298.436 68.9554C290.14 68.9554 283.77 72.6542 281.716 79.8465L290.397 81.0795C291.322 78.3824 293.941 76.0706 298.487 76.0706C302.802 76.0706 305.165 78.2796 305.165 82.1583V82.3124C305.165 84.9838 302.365 85.1123 295.405 85.8572C287.751 86.6792 280.432 88.9652 280.432 97.8528C280.432 105.61 286.108 109.72 293.633 109.72ZM296.69 102.887C292.811 102.887 290.037 101.115 290.037 97.6987C290.037 94.1283 293.146 92.6384 297.306 92.0476C299.746 91.7137 304.626 91.0972 305.833 90.1211V94.7704C305.833 99.1628 302.289 102.887 296.69 102.887Z" fill="#171321"/>
<path d="M321.32 108.924H330.463V102.708H331.003C332.467 105.584 335.523 109.617 342.304 109.617C351.601 109.617 358.561 102.245 358.561 89.2478C358.561 76.0963 351.396 68.9554 342.278 68.9554C335.318 68.9554 332.416 73.1423 331.003 75.9935H330.618V56.3176H321.32V108.924ZM330.438 89.1964C330.438 81.5418 333.725 76.5843 339.709 76.5843C345.899 76.5843 349.084 81.85 349.084 89.1964C349.084 96.5942 345.848 101.988 339.709 101.988C333.776 101.988 330.438 96.851 330.438 89.1964Z" fill="#171321"/>
<path d="M128.714 74.3377L128.623 74.0997L119.587 50.5206C119.406 50.0587 119.081 49.6695 118.659 49.4007C118.237 49.1306 117.743 49.0032 117.242 49.0298C116.744 49.0564 116.265 49.2383 115.875 49.5491C115.487 49.8627 115.207 50.2868 115.075 50.7656L108.974 69.441H84.2896L78.1884 50.7656C78.0568 50.2868 77.7769 49.8627 77.3891 49.5491C76.9986 49.2384 76.5199 49.0564 76.0217 49.0298C75.5206 49.0032 75.0265 49.1306 74.6052 49.4007C74.1825 49.6695 73.8578 50.0587 73.6772 50.5206L64.6409 74.1011L64.5499 74.3377C61.8723 81.323 64.1538 89.2196 70.1164 93.7299C70.1276 93.7369 70.1374 93.7453 70.1486 93.7537L70.2284 93.8139L83.9928 104.12L90.8009 109.274L94.9439 112.407C95.9419 113.163 97.322 113.163 98.3199 112.407L102.463 109.274L109.27 104.12L123.115 93.7537C123.128 93.7439 123.139 93.7355 123.152 93.7257C129.11 89.2154 131.39 81.3216 128.714 74.3377Z" fill="#E24329"/>
<path d="M128.714 74.3377L128.623 74.0997C124.14 75.0209 120.011 76.9177 116.475 79.5634C116.418 79.6054 105.731 87.6881 96.632 94.5684C103.388 99.6779 109.27 104.12 109.27 104.12L123.115 93.7537C123.128 93.7439 123.139 93.7355 123.152 93.7257C129.11 89.2154 131.39 81.3216 128.714 74.3377Z" fill="#FC6D26"/>
<path d="M83.9928 104.12L90.8009 109.274L94.9439 112.407C95.9419 113.163 97.3219 113.163 98.3199 112.407L102.463 109.274L109.27 104.12C109.27 104.12 103.388 99.6779 96.6319 94.5684C89.8743 99.6779 83.9928 104.12 83.9928 104.12Z" fill="#FCA326"/>
<path d="M76.7873 79.5634C73.2531 76.9191 69.1254 75.0209 64.6409 74.1012L64.5499 74.3377C61.8723 81.323 64.1538 89.2196 70.1164 93.7299C70.1276 93.7369 70.1374 93.7453 70.1486 93.7537L70.2284 93.8139L83.9928 104.12C83.9928 104.12 89.8743 99.6779 96.6319 94.5684C87.5326 87.6881 76.8447 79.6054 76.7873 79.5634Z" fill="#FC6D26"/>
<path d="M410.135 81.2135L451.229 40.1361C456.903 34.4644 466.103 34.4644 471.776 40.1361C477.45 45.8076 477.45 55.0032 471.776 60.6748L440.741 91.6969" stroke="black" stroke-width="12" stroke-linecap="round"/>
<path d="M441.17 91.269L471.776 60.6748C477.451 55.0031 486.65 55.0031 492.324 60.6748L492.538 60.8887C498.212 66.5603 498.212 75.7558 492.538 81.4274L455.372 118.578C453.48 120.469 453.48 123.534 455.372 125.424L463.003 133.053" stroke="black" stroke-width="12" stroke-linecap="round"/>
<path d="M461.503 50.4054L431.11 80.7856C425.436 86.457 425.436 95.6526 431.11 101.324C436.784 106.996 445.983 106.996 451.657 101.324L482.05 70.9441" stroke="black" stroke-width="12" stroke-linecap="round"/>
<path d="M530.536 60.2331H539.906L552.454 90.8472H552.949L565.497 60.2331H574.867V102.482H567.52V73.4565H567.128L555.447 102.358H549.957L538.276 73.3946H537.884V102.482H530.536V60.2331ZM596.702 103.101C593.606 103.101 590.923 102.42 588.653 101.059C586.383 99.6972 584.622 97.7923 583.37 95.3446C582.132 92.8962 581.512 90.0358 581.512 86.7626C581.512 83.4895 582.132 80.6218 583.37 78.16C584.622 75.6982 586.383 73.7866 588.653 72.425C590.923 71.0635 593.606 70.3827 596.702 70.3827C599.797 70.3827 602.48 71.0635 604.751 72.425C607.021 73.7866 608.775 75.6982 610.013 78.16C611.266 80.6218 611.892 83.4895 611.892 86.7626C611.892 90.0358 611.266 92.8962 610.013 95.3446C608.775 97.7923 607.021 99.6972 604.751 101.059C602.48 102.42 599.797 103.101 596.702 103.101ZM596.743 97.1182C598.422 97.1182 599.825 96.6577 600.954 95.7361C602.082 94.8011 602.921 93.5497 603.471 91.9819C604.035 90.414 604.317 88.667 604.317 86.7421C604.317 84.8026 604.035 83.049 603.471 81.4814C602.921 79.8997 602.082 78.6414 600.954 77.7062C599.825 76.771 598.422 76.3034 596.743 76.3034C595.023 76.3034 593.592 76.771 592.451 77.7062C591.322 78.6414 590.476 79.8997 589.912 81.4814C589.362 83.049 589.086 84.8026 589.086 86.7421C589.086 88.667 589.362 90.414 589.912 91.9819C590.476 93.5497 591.322 94.8011 592.451 95.7361C593.592 96.6577 595.023 97.1182 596.743 97.1182ZM629.996 103.039C627.506 103.039 625.277 102.4 623.31 101.121C621.342 99.8413 619.787 97.9847 618.645 95.5503C617.504 93.1165 616.932 90.1592 616.932 86.6797C616.932 83.1591 617.51 80.1886 618.666 77.7681C619.836 75.3338 621.411 73.4978 623.392 72.26C625.374 71.0085 627.581 70.3827 630.017 70.3827C631.874 70.3827 633.402 70.6991 634.598 71.3317C635.796 71.9506 636.745 72.7001 637.447 73.5803C638.148 74.4468 638.692 75.265 639.077 76.0352H639.386V60.2331H646.878V102.482H639.531V97.4897H639.077C638.692 98.2601 638.134 99.0782 637.406 99.9447C636.676 100.797 635.713 101.526 634.516 102.131C633.319 102.736 631.812 103.039 629.996 103.039ZM632.081 96.9118C633.663 96.9118 635.011 96.4858 636.126 95.6332C637.24 94.7667 638.087 93.5631 638.664 92.023C639.242 90.4824 639.531 88.6881 639.531 86.6386C639.531 84.5896 639.242 82.8087 638.664 81.2957C638.1 79.7828 637.261 78.607 636.146 77.7681C635.046 76.9291 633.69 76.5096 632.081 76.5096C630.416 76.5096 629.026 76.9429 627.912 77.8093C626.797 78.6758 625.958 79.8723 625.394 81.3988C624.83 82.9255 624.548 84.6719 624.548 86.6386C624.548 88.6192 624.83 90.3861 625.394 91.9407C625.972 93.4808 626.818 94.6977 627.933 95.5921C629.061 96.4719 630.444 96.9118 632.081 96.9118ZM668.873 103.101C665.695 103.101 662.95 102.441 660.638 101.121C658.341 99.7862 656.573 97.9024 655.334 95.468C654.096 93.0203 653.477 90.1386 653.477 86.8244C653.477 83.5651 654.096 80.7043 655.334 78.2425C656.586 75.767 658.334 73.8416 660.576 72.4663C662.819 71.0773 665.454 70.3827 668.481 70.3827C670.435 70.3827 672.278 70.6991 674.012 71.3317C675.759 71.9506 677.3 72.9133 678.635 74.2198C679.983 75.5263 681.043 77.1904 681.813 79.2121C682.583 81.22 682.969 83.6129 682.969 86.3911V88.6809H656.985V83.6474H675.807C675.794 82.2171 675.484 80.945 674.879 79.831C674.273 78.7032 673.427 77.8162 672.34 77.1698C671.267 76.5234 670.015 76.2002 668.584 76.2002C667.057 76.2002 665.716 76.5715 664.56 77.3142C663.404 78.0431 662.503 79.0058 661.856 80.2023C661.223 81.3851 660.9 82.6847 660.886 84.1013V88.4951C660.886 90.3383 661.223 91.9195 661.897 93.2399C662.572 94.5464 663.514 95.5503 664.725 96.2523C665.935 96.9397 667.353 97.2834 668.976 97.2834C670.063 97.2834 671.047 97.1321 671.927 96.8295C672.808 96.5131 673.572 96.0526 674.218 95.4474C674.865 94.8423 675.353 94.0925 675.684 93.1988L682.659 93.983C682.219 95.8256 681.38 97.4347 680.141 98.8101C678.917 100.172 677.349 101.231 675.436 101.987C673.524 102.73 671.336 103.101 668.873 103.101ZM696.76 60.2331V102.482H689.289V60.2331H696.76ZM755.367 74.488H747.648C747.428 73.2227 747.022 72.1019 746.43 71.1254C745.839 70.1352 745.103 69.2963 744.223 68.6086C743.342 67.921 742.337 67.4052 741.209 67.0614C740.094 66.7038 738.891 66.525 737.597 66.525C735.3 66.525 733.263 67.1027 731.489 68.2579C729.714 69.3994 728.324 71.0773 727.32 73.2915C726.315 75.4919 725.814 78.1806 725.814 81.3576C725.814 84.5896 726.315 87.3127 727.32 89.5269C728.338 91.7271 729.727 93.3912 731.489 94.5192C733.263 95.6332 735.293 96.1899 737.577 96.1899C738.843 96.1899 740.026 96.0253 741.127 95.6949C742.241 95.3512 743.239 94.849 744.119 94.1888C745.013 93.5292 745.763 92.7177 746.369 91.7549C746.988 90.7922 747.414 89.6921 747.648 88.454L755.367 88.4951C755.078 90.5035 754.452 92.3873 753.489 94.1476C752.539 95.9079 751.294 97.4625 749.753 98.8101C748.213 100.144 746.41 101.189 744.346 101.946C742.282 102.688 739.992 103.06 737.474 103.06C733.759 103.06 730.443 102.2 727.526 100.481C724.609 98.7617 722.311 96.2795 720.633 93.0336C718.955 89.7883 718.116 85.8961 718.116 81.3576C718.116 76.8054 718.961 72.9133 720.654 69.6814C722.346 66.4356 724.651 63.9532 727.567 62.2341C730.484 60.515 733.786 59.6555 737.474 59.6555C739.826 59.6555 742.014 59.9855 744.037 60.6457C746.059 61.3058 747.862 62.2754 749.444 63.5545C751.026 64.8197 752.326 66.3737 753.344 68.2167C754.376 70.0458 755.05 72.1363 755.367 74.488ZM775.876 103.101C772.78 103.101 770.097 102.42 767.827 101.059C765.557 99.6972 763.796 97.7923 762.544 95.3446C761.305 92.8962 760.687 90.0358 760.687 86.7626C760.687 83.4895 761.305 80.6218 762.544 78.16C763.796 75.6982 765.557 73.7866 767.827 72.425C770.097 71.0635 772.78 70.3827 775.876 70.3827C778.971 70.3827 781.655 71.0635 783.925 72.425C786.195 73.7866 787.949 75.6982 789.187 78.16C790.439 80.6218 791.065 83.4895 791.065 86.7626C791.065 90.0358 790.439 92.8962 789.187 95.3446C787.949 97.7923 786.195 99.6972 783.925 101.059C781.655 102.42 778.971 103.101 775.876 103.101ZM775.917 97.1182C777.595 97.1182 778.999 96.6577 780.127 95.7361C781.256 94.8011 782.095 93.5497 782.645 91.9819C783.209 90.414 783.491 88.667 783.491 86.7421C783.491 84.8026 783.209 83.049 782.645 81.4814C782.095 79.8997 781.256 78.6414 780.127 77.7062C778.999 76.771 777.595 76.3034 775.917 76.3034C774.197 76.3034 772.766 76.771 771.625 77.7062C770.496 78.6414 769.65 79.8997 769.086 81.4814C768.536 83.049 768.26 84.8026 768.26 86.7421C768.26 88.667 768.536 90.414 769.086 91.9819C769.65 93.5497 770.496 94.8011 771.625 95.7361C772.766 96.6577 774.197 97.1182 775.917 97.1182ZM804.878 83.9155V102.482H797.407V70.7954H804.547V76.1796H804.919C805.648 74.4055 806.811 72.9958 808.406 71.9506C810.016 70.9054 812.005 70.3827 814.371 70.3827C816.558 70.3827 818.464 70.8504 820.088 71.7855C821.725 72.7207 822.991 74.0754 823.885 75.8495C824.793 77.6237 825.24 79.776 825.226 82.3065V102.482H817.756V83.4617C817.756 81.3438 817.205 79.6866 816.104 78.4901C815.018 77.2936 813.511 76.6954 811.585 76.6954C810.278 76.6954 809.115 76.9841 808.097 77.5618C807.093 78.1256 806.301 78.9439 805.724 80.0167C805.16 81.0894 804.878 82.3891 804.878 83.9155ZM848.651 70.7954V76.5715H830.427V70.7954H848.651ZM834.926 63.2037H842.397V92.9513C842.397 93.9552 842.549 94.7255 842.851 95.2617C843.168 95.7845 843.581 96.1421 844.09 96.3345C844.598 96.527 845.163 96.6232 845.782 96.6232C846.25 96.6232 846.676 96.5887 847.062 96.5203C847.461 96.4513 847.763 96.3896 847.97 96.3345L849.228 102.173C848.829 102.31 848.259 102.461 847.516 102.627C846.786 102.791 845.892 102.887 844.833 102.915C842.961 102.97 841.276 102.688 839.777 102.069C838.276 101.437 837.086 100.46 836.206 99.1399C835.339 97.8195 834.912 96.1693 834.926 94.1888V63.2037ZM868.592 103.101C865.414 103.101 862.669 102.441 860.358 101.121C858.06 99.7862 856.292 97.9024 855.053 95.468C853.815 93.0203 853.196 90.1386 853.196 86.8244C853.196 83.5651 853.815 80.7043 855.053 78.2425C856.306 75.767 858.053 73.8416 860.295 72.4663C862.538 71.0773 865.173 70.3827 868.2 70.3827C870.154 70.3827 871.997 70.6991 873.731 71.3317C875.478 71.9506 877.019 72.9133 878.354 74.2198C879.702 75.5263 880.761 77.1904 881.532 79.2121C882.303 81.22 882.688 83.6129 882.688 86.3911V88.6809H856.705V83.6474H875.527C875.513 82.2171 875.203 80.945 874.597 79.831C873.992 78.7032 873.146 77.8162 872.059 77.1698C870.986 76.5234 869.734 76.2002 868.303 76.2002C866.776 76.2002 865.434 76.5715 864.279 77.3142C863.123 78.0431 862.222 79.0058 861.575 80.2023C860.943 81.3851 860.619 82.6847 860.605 84.1013V88.4951C860.605 90.3383 860.943 91.9195 861.616 93.2399C862.291 94.5464 863.233 95.5503 864.444 96.2523C865.655 96.9397 867.072 97.2834 868.695 97.2834C869.782 97.2834 870.766 97.1321 871.646 96.8295C872.527 96.5131 873.29 96.0526 873.938 95.4474C874.584 94.8423 875.073 94.0925 875.403 93.1988L882.378 93.983C881.938 95.8256 881.099 97.4347 879.861 98.8101C878.636 100.172 877.067 101.231 875.155 101.987C873.243 102.73 871.055 103.101 868.592 103.101ZM894.436 70.7954L900.833 82.4922L907.335 70.7954H915.239L905.684 86.6386L915.404 102.482H907.541L900.833 91.0742L894.188 102.482H886.263L895.922 86.6386L886.511 70.7954H894.436ZM936.847 70.7954V76.5715H918.624V70.7954H936.847ZM923.123 63.2037H930.594V92.9513C930.594 93.9552 930.745 94.7255 931.048 95.2617C931.364 95.7845 931.777 96.1421 932.286 96.3345C932.795 96.527 933.359 96.6232 933.978 96.6232C934.446 96.6232 934.873 96.5887 935.258 96.5203C935.657 96.4513 935.96 96.3896 936.166 96.3345L937.425 102.173C937.026 102.31 936.455 102.461 935.712 102.627C934.983 102.791 934.088 102.887 933.029 102.915C931.158 102.97 929.472 102.688 927.973 102.069C926.473 101.437 925.283 100.46 924.402 99.1399C923.536 97.8195 923.109 96.1693 923.123 94.1888V63.2037ZM957.841 102.482V60.2331H973.691C976.938 60.2331 979.663 60.8382 981.864 62.0485C984.079 63.2587 985.75 64.9228 986.879 67.0408C988.02 69.145 988.592 71.538 988.592 74.2198C988.592 76.9291 988.02 79.3359 986.879 81.4401C985.737 83.5446 984.052 85.2014 981.823 86.4117C979.594 87.608 976.849 88.2065 973.588 88.2065H963.083V81.9146H972.556C974.454 81.9146 976.009 81.5845 977.22 80.9244C978.431 80.2642 979.325 79.3565 979.903 78.2013C980.495 77.046 980.79 75.7189 980.79 74.2198C980.79 72.7208 980.495 71.4005 979.903 70.259C979.325 69.1175 978.424 68.2304 977.199 67.5978C975.989 66.9514 974.427 66.6282 972.515 66.6282H965.498V102.482H957.841ZM994.912 102.482V70.7954H1002.15V76.0764H1002.49C1003.06 74.2473 1004.06 72.8377 1005.46 71.8474C1006.88 70.8435 1008.49 70.3415 1010.31 70.3415C1010.72 70.3415 1011.18 70.3621 1011.69 70.4034C1012.22 70.4309 1012.65 70.479 1012.99 70.5478V77.4173C1012.68 77.3073 1012.17 77.211 1011.48 77.1286C1010.81 77.0323 1010.16 76.9841 1009.52 76.9841C1008.16 76.9841 1006.94 77.2798 1005.85 77.8712C1004.78 78.4488 1003.93 79.2533 1003.31 80.2849C1002.69 81.3163 1002.38 82.5059 1002.38 83.8538V102.482H994.912ZM1030.47 103.101C1027.38 103.101 1024.7 102.42 1022.43 101.059C1020.16 99.6972 1018.4 97.7923 1017.14 95.3446C1015.9 92.8962 1015.29 90.0358 1015.29 86.7626C1015.29 83.4895 1015.9 80.6218 1017.14 78.16C1018.4 75.6982 1020.16 73.7866 1022.43 72.425C1024.7 71.0635 1027.38 70.3827 1030.47 70.3827C1033.57 70.3827 1036.26 71.0635 1038.53 72.425C1040.8 73.7866 1042.55 75.6982 1043.79 78.16C1045.04 80.6218 1045.66 83.4895 1045.66 86.7626C1045.66 90.0358 1045.04 92.8962 1043.79 95.3446C1042.55 97.7923 1040.8 99.6972 1038.53 101.059C1036.26 102.42 1033.57 103.101 1030.47 103.101ZM1030.52 97.1182C1032.19 97.1182 1033.6 96.6577 1034.73 95.7361C1035.86 94.8011 1036.7 93.5497 1037.24 91.9819C1037.81 90.414 1038.09 88.667 1038.09 86.7421C1038.09 84.8026 1037.81 83.049 1037.24 81.4814C1036.7 79.8997 1035.86 78.6414 1034.73 77.7062C1033.6 76.771 1032.19 76.3034 1030.52 76.3034C1028.8 76.3034 1027.37 76.771 1026.22 77.7062C1025.1 78.6414 1024.25 79.8997 1023.69 81.4814C1023.14 83.049 1022.86 84.8026 1022.86 86.7421C1022.86 88.667 1023.14 90.414 1023.69 91.9819C1024.25 93.5497 1025.1 94.8011 1026.22 95.7361C1027.37 96.6577 1028.8 97.1182 1030.52 97.1182ZM1067.84 70.7954V76.5715H1049.61V70.7954H1067.84ZM1054.11 63.2037H1061.59V92.9513C1061.59 93.9552 1061.74 94.7255 1062.04 95.2617C1062.35 95.7845 1062.77 96.1421 1063.27 96.3345C1063.78 96.527 1064.35 96.6232 1064.97 96.6232C1065.44 96.6232 1065.86 96.5887 1066.25 96.5203C1066.65 96.4513 1066.95 96.3896 1067.15 96.3345L1068.41 102.173C1068.01 102.31 1067.45 102.461 1066.7 102.627C1065.97 102.791 1065.08 102.887 1064.02 102.915C1062.15 102.97 1060.46 102.688 1058.96 102.069C1057.46 101.437 1056.27 100.46 1055.39 99.1399C1054.53 97.8195 1054.1 96.1693 1054.11 94.1888V63.2037ZM1087.57 103.101C1084.47 103.101 1081.79 102.42 1079.52 101.059C1077.25 99.6972 1075.49 97.7923 1074.24 95.3446C1073 92.8962 1072.38 90.0358 1072.38 86.7626C1072.38 83.4895 1073 80.6218 1074.24 78.16C1075.49 75.6982 1077.25 73.7866 1079.52 72.425C1081.79 71.0635 1084.47 70.3827 1087.57 70.3827C1090.67 70.3827 1093.35 71.0635 1095.62 72.425C1097.89 73.7866 1099.65 75.6982 1100.88 78.16C1102.13 80.6218 1102.76 83.4895 1102.76 86.7626C1102.76 90.0358 1102.13 92.8962 1100.88 95.3446C1099.65 97.7923 1097.89 99.6972 1095.62 101.059C1093.35 102.42 1090.67 103.101 1087.57 103.101ZM1087.61 97.1182C1089.29 97.1182 1090.69 96.6577 1091.82 95.7361C1092.95 94.8011 1093.79 93.5497 1094.34 91.9819C1094.91 90.414 1095.19 88.667 1095.19 86.7421C1095.19 84.8026 1094.91 83.049 1094.34 81.4814C1093.79 79.8997 1092.95 78.6414 1091.82 77.7062C1090.69 76.771 1089.29 76.3034 1087.61 76.3034C1085.89 76.3034 1084.46 76.771 1083.32 77.7062C1082.19 78.6414 1081.34 79.8997 1080.78 81.4814C1080.23 83.049 1079.96 84.8026 1079.96 86.7421C1079.96 88.667 1080.23 90.414 1080.78 91.9819C1081.34 93.5497 1082.19 94.8011 1083.32 95.7361C1084.46 96.6577 1085.89 97.1182 1087.61 97.1182ZM1122.93 103.101C1119.76 103.101 1117.05 102.406 1114.78 101.018C1112.52 99.6283 1110.78 97.71 1109.56 95.2617C1108.34 92.8 1107.74 89.9668 1107.74 86.7626C1107.74 83.5446 1108.36 80.7043 1109.6 78.2425C1110.83 75.767 1112.58 73.8416 1114.84 72.4663C1117.11 71.0773 1119.79 70.3827 1122.89 70.3827C1125.46 70.3827 1127.74 70.8572 1129.72 71.8062C1131.71 72.7414 1133.3 74.0686 1134.49 75.7877C1135.67 77.493 1136.34 79.4872 1136.51 81.7701H1129.37C1129.08 80.2436 1128.39 78.9714 1127.31 77.9537C1126.23 76.9223 1124.79 76.4065 1122.99 76.4065C1121.46 76.4065 1120.13 76.8191 1118.97 77.6443C1117.81 78.4557 1116.91 79.6247 1116.26 81.1513C1115.63 82.678 1115.31 84.5067 1115.31 86.6386C1115.31 88.7977 1115.63 90.6548 1116.26 92.2088C1116.9 93.7488 1117.78 94.9385 1118.93 95.7772C1120.08 96.6026 1121.44 97.0153 1122.99 97.0153C1124.09 97.0153 1125.08 96.809 1125.94 96.3963C1126.82 95.9703 1127.56 95.3579 1128.15 94.5603C1128.74 93.7627 1129.15 92.7933 1129.37 91.6515H1136.51C1136.33 93.8935 1135.67 95.8807 1134.53 97.6138C1133.38 99.3324 1131.83 100.681 1129.87 101.657C1127.9 102.619 1125.59 103.101 1122.93 103.101ZM1156.47 103.101C1153.37 103.101 1150.69 102.42 1148.42 101.059C1146.15 99.6972 1144.39 97.7923 1143.14 95.3446C1141.9 92.8962 1141.28 90.0358 1141.28 86.7626C1141.28 83.4895 1141.9 80.6218 1143.14 78.16C1144.39 75.6982 1146.15 73.7866 1148.42 72.425C1150.69 71.0635 1153.37 70.3827 1156.47 70.3827C1159.57 70.3827 1162.25 71.0635 1164.52 72.425C1166.79 73.7866 1168.54 75.6982 1169.78 78.16C1171.03 80.6218 1171.66 83.4895 1171.66 86.7626C1171.66 90.0358 1171.03 92.8962 1169.78 95.3446C1168.54 97.7923 1166.79 99.6972 1164.52 101.059C1162.25 102.42 1159.57 103.101 1156.47 103.101ZM1156.52 97.1182C1158.19 97.1182 1159.6 96.6577 1160.72 95.7361C1161.85 94.8011 1162.69 93.5497 1163.24 91.9819C1163.8 90.414 1164.09 88.667 1164.09 86.7421C1164.09 84.8026 1163.8 83.049 1163.24 81.4814C1162.69 79.8997 1161.85 78.6414 1160.72 77.7062C1159.6 76.771 1158.19 76.3034 1156.52 76.3034C1154.8 76.3034 1153.36 76.771 1152.22 77.7062C1151.09 78.6414 1150.24 79.8997 1149.68 81.4814C1149.13 83.049 1148.86 84.8026 1148.86 86.7421C1148.86 88.667 1149.13 90.414 1149.68 91.9819C1150.24 93.5497 1151.09 94.8011 1152.22 95.7361C1153.36 96.6577 1154.8 97.1182 1156.52 97.1182ZM1185.47 60.2331V102.482H1178V60.2331H1185.47Z" fill="black"/>
</svg>
