<?xml version="1.0" encoding="UTF-8"?>
<svg width="161px" height="71px" viewBox="0 0 161 71" version="1.1" xmlns="http://www.w3.org/2000/svg" xmlns:xlink="http://www.w3.org/1999/xlink">
    <title>编组</title>
    <g id="logo" stroke="none" stroke-width="1" fill="none" fill-rule="evenodd">
        <g id="SVGViewer-(1)" transform="translate(0, -75)" fill="#000000" fill-rule="nonzero">
            <g id="形状" transform="translate(0, 75)">
                <path d="M43.6072349,70.489402 C41.2240333,70.489402 38.5373527,69.9653671 35.5471933,68.9172975 C32.5659598,67.86027 28.7546223,66.3419127 24.1131809,64.3622256 L24.1131809,64.3622256 L19.9224948,62.5348221 C16.7895218,65.8581882 13.4289397,67.5198713 9.84074844,67.5198713 L9.84074844,67.5198713 C7.92169092,67.5198713 6.20792793,67.0809362 4.69945946,66.2030659 C3.19099099,65.3341534 2.03063063,64.272647 1.21837838,63.0185466 C0.406126126,61.7644461 0,60.555135 0,59.3906132 L0,59.3906132 C0,58.1096392 0.566791407,57.0615695 1.70037422,56.2464042 C2.82503119,55.431239 4.63697852,55.0236563 7.13621622,55.0236563 L7.13621622,55.0236563 C9.98356202,55.0236563 13.6386972,55.6059172 18.1016216,56.7704391 L18.1016216,56.7704391 C19.440499,54.3249432 20.7302841,51.4136387 21.9709771,48.0365254 C23.220596,44.6594121 24.6576577,40.3775549 26.2821622,35.1909538 L26.2821622,35.1909538 L28.4511435,28.4725587 C25.6127235,27.5409412 23.39465,26.2017411 21.7969231,24.4549584 C20.208122,22.7081756 19.4137214,20.8718143 19.4137214,18.9458743 L19.4137214,18.9458743 C19.4137214,17.0915973 20.0920859,15.376167 21.448815,13.7995836 C22.8144699,12.2230003 24.5683992,11.4347086 26.7106029,11.4347086 L26.7106029,11.4347086 C25.5591684,12.9575448 24.9834511,14.9372319 24.9834511,17.3737699 L24.9834511,17.3737699 C24.9834511,19.1832576 25.402966,20.7732778 26.2419958,22.1438304 C27.0810256,23.5054252 28.1699792,24.5938052 29.5088565,25.4089705 L29.5088565,25.4089705 C32.1152044,17.4902221 34.9000693,11.277946 37.8634511,6.77214232 C40.8179071,2.25738077 44.4418018,0 48.7351351,0 L48.7351351,0 C51.1718919,0 53.3899653,0.743502397 55.3893555,2.23050719 C57.3887457,3.71751199 58.3884407,6.11821852 58.3884407,9.4326268 L58.3884407,9.4326268 C58.3884407,12.3976785 57.5627997,15.4388721 55.9115177,18.5562074 C54.2602356,21.6735428 51.6940541,24.3071537 48.212973,26.4570401 C44.7318919,28.6158844 40.4073181,29.6953066 35.2392516,29.6953066 L35.2392516,29.6953066 C33.1506029,36.0374716 31.1824532,41.5375978 29.3348025,46.1956851 C27.4782259,50.8627303 25.4743728,54.853457 23.3232432,58.1678653 L23.3232432,58.1678653 C28.5448649,59.7354908 32.9988635,60.9716755 36.6852391,61.8764194 C40.3716147,62.7811633 43.602772,63.2335352 46.378711,63.2335352 L46.378711,63.2335352 C47.7175884,63.2335352 48.980596,63.0857305 50.1677339,62.7901211 C51.3637976,62.5034696 52.6535828,62.0107873 54.0370894,61.3120742 L54.0370894,61.3120742 C52.8856549,64.5189881 51.4664449,66.8480318 49.7794595,68.2992051 C48.1013999,69.7593364 46.0439917,70.489402 43.6072349,70.489402 L43.6072349,70.489402 Z M36.2032432,26.8063967 C39.3362162,26.5734923 42.1210811,25.3373076 44.5578378,23.0978425 C46.9945946,20.8583775 48.8958004,18.2382034 50.2614553,15.2373202 C51.6271102,12.2453949 52.3099376,9.611784 52.3099376,7.33648751 L52.3099376,7.33648751 C52.3099376,4.71183447 51.3504089,3.39950795 49.4313514,3.39950795 L49.4313514,3.39950795 C47.1106306,3.39950795 44.963964,5.36575826 42.9913514,9.29825889 C41.0187387,13.2307595 38.756036,19.0668055 36.2032432,26.8063967 L36.2032432,26.8063967 Z M8.97047817,64.2816048 C10.3004297,64.2816048 11.4161608,64.0039112 12.3176715,63.4485238 C13.2102564,62.8931365 14.241192,62.0063084 15.4104782,60.7880394 L15.4104782,60.7880394 C11.286736,59.274161 8.23855856,58.5172218 6.26594595,58.5172218 L6.26594595,58.5172218 C5.22162162,58.5172218 4.43614692,58.7053369 3.90952183,59.081567 C3.39182259,59.4577971 3.13297297,59.9683952 3.13297297,60.6133611 L3.13297297,60.6133611 C3.13297297,61.6076836 3.71315315,62.4676382 4.87351351,63.1932248 C6.03387387,63.9188115 7.39952876,64.2816048 8.97047817,64.2816048 L8.97047817,64.2816048 Z M99.732973,71 C97.3497713,70.7133485 95.769896,69.9026621 94.9933472,68.567941 C94.2078725,67.2242619 93.8151351,65.5894524 93.8151351,63.6635125 L93.8151351,63.6635125 C93.8151351,62.9110522 93.8419127,62.3287913 93.8954678,61.9167298 L93.8954678,61.9167298 C89.2004712,67.6318446 83.8940541,70.489402 77.9762162,70.489402 L77.9762162,70.489402 C74.6736521,70.489402 71.6567152,69.6160106 68.9254054,67.8692279 C66.2030215,66.1224451 64.042966,63.5873707 62.4452391,60.2640045 C60.8475121,56.9406384 60.0486486,53.0394903 60.0486486,48.5605602 L60.0486486,48.5605602 C60.0486486,41.2240727 61.8918365,33.771133 65.5782121,26.2017411 C69.2645877,18.6323492 73.9640471,12.3887207 79.6765904,7.47085541 C85.3891337,2.55299016 91.0882883,0.0940575322 96.7740541,0.0940575322 L96.7740541,0.0940575322 C100.317616,0.0940575322 102.928427,1.06598536 104.606486,3.00984103 C106.293472,4.96265455 107.136965,7.42158718 107.136965,10.3866389 L107.136965,10.3866389 C107.136965,12.4827782 106.757616,14.5520439 105.998919,16.594436 C105.240222,18.6278703 104.240527,20.3029902 102.999834,21.6197956 C101.750215,22.9276432 100.402412,23.581567 98.9564241,23.581567 L98.9564241,23.581567 C98.197727,23.581567 97.5282883,23.3620994 96.9481081,22.9231643 C96.3679279,22.4842291 95.8189882,21.7452057 95.301289,20.7060939 L95.301289,20.7060939 C96.1670963,20.1148751 97.1489397,19.0668055 98.2468191,17.5618849 C99.3536244,16.0390487 100.299764,14.4042392 101.085239,12.6574565 C101.870714,10.9106737 102.263451,9.36992178 102.263451,8.03520061 L102.263451,8.03520061 C102.263451,6.80797376 101.870714,5.8181302 101.085239,5.06566995 C100.299764,4.30425183 99.1215523,3.92354277 97.5506029,3.92354277 L97.5506029,3.92354277 C93.3197505,3.92354277 88.9282328,6.41382791 84.3760499,11.3943982 C79.8238669,16.3749685 76.0214553,22.4618345 72.968815,29.6549962 C69.9251005,36.8392001 68.4032432,43.4590588 68.4032432,49.5145723 L68.4032432,49.5145723 C68.4032432,52.9543906 68.9254054,55.941837 69.9697297,58.4769114 C71.0140541,61.003028 72.4198753,62.9379258 74.1871933,64.2816048 C75.9545114,65.6252839 77.9137353,66.2971234 80.0648649,66.2971234 L80.0648649,66.2971234 C83.0818018,66.2971234 85.8532779,65.0295862 88.3792931,62.4945117 C90.8963825,59.9594373 92.9404019,56.7704391 94.5113514,52.927517 C96.0823008,49.084595 97.0418295,45.241673 97.3899376,41.3987509 L97.3899376,41.3987509 C94.5425918,40.81649 91.4363964,40.5253596 88.0713514,40.5253596 L88.0713514,40.5253596 C87.027027,40.5253596 85.1124324,40.5835857 82.3275676,40.7000379 L82.3275676,40.7000379 C82.8452668,38.6576457 83.6709078,37.1572041 84.8044906,36.1987131 C85.9380735,35.2402221 87.4331532,34.7609765 89.2897297,34.7609765 L89.2897297,34.7609765 C90.6821622,34.7609765 92.1058351,34.9490916 93.5607484,35.3253217 C95.006736,35.7015519 96.8320721,36.270376 99.0367568,37.0317941 L99.0367568,37.0317941 C101.473514,37.9634116 103.562162,38.6038986 105.302703,38.9532551 L105.302703,38.9532551 C102.74991,46.8720035 101.138794,52.1571411 100.469356,54.8086677 C99.8088427,57.4512364 99.4785863,60.1117209 99.4785863,62.7901211 L99.4785863,62.7901211 L99.5589189,66.901779 C99.674955,68.5321095 99.732973,69.8981832 99.732973,71 L99.732973,71 Z M146.205405,70.489402 C143.83113,70.489402 141.148912,69.9653671 138.158753,68.9172975 C135.168593,67.86027 131.352793,66.3419127 126.711351,64.3622256 L126.711351,64.3622256 L122.534054,62.5348221 C119.401081,65.8581882 116.036036,67.5198713 112.438919,67.5198713 L112.438919,67.5198713 C110.519861,67.5198713 108.806098,67.0809362 107.29763,66.2030659 C105.789161,65.3341534 104.628801,64.272647 103.816549,63.0185466 C103.004297,61.7644461 102.59817,60.555135 102.59817,59.3906132 L102.59817,59.3906132 C102.59817,58.1096392 103.164962,57.0615695 104.298545,56.2464042 C105.432128,55.431239 107.244075,55.0236563 109.734387,55.0236563 L109.734387,55.0236563 C112.581733,55.0236563 116.236868,55.6059172 120.699792,56.7704391 L120.699792,56.7704391 C122.038669,54.3249432 123.332918,51.4136387 124.582536,48.0365254 C125.823229,44.6594121 127.255828,40.3775549 128.880333,35.1909538 L128.880333,35.1909538 L131.062703,28.4725587 C128.215357,27.5409412 125.997283,26.2017411 124.408482,24.4549584 C122.810755,22.7081756 122.011892,20.8718143 122.011892,18.9458743 L122.011892,18.9458743 C122.011892,17.0915973 122.694719,15.376167 124.060374,13.7995836 C125.417103,12.2230003 127.171033,11.4347086 129.322162,11.4347086 L129.322162,11.4347086 C128.161802,12.9575448 127.581622,14.9372319 127.581622,17.3737699 L127.581622,17.3737699 C127.581622,19.1832576 128.001137,20.7732778 128.840166,22.1438304 C129.679196,23.5054252 130.76815,24.5938052 132.107027,25.4089705 L132.107027,25.4089705 C134.713375,17.4902221 137.49824,11.277946 140.461622,6.77214232 C143.416078,2.25738077 147.044435,0 151.346694,0 L151.346694,0 C153.774525,0 155.992599,0.743502397 158.000915,2.23050719 C160.000305,3.71751199 161,6.11821852 161,9.4326268 L161,9.4326268 C161,12.3976785 160.174359,15.4388721 158.523077,18.5562074 C156.862869,21.6735428 154.292225,24.3071537 150.811143,26.4570401 C147.330062,28.6158844 143.009951,29.6953066 137.850811,29.6953066 L137.850811,29.6953066 C135.762162,36.0374716 133.78955,41.5375978 131.932973,46.1956851 C130.076396,50.8627303 128.072543,54.853457 125.921414,58.1678653 L125.921414,58.1678653 C131.143035,59.7354908 135.597034,60.9716755 139.28341,61.8764194 C142.969785,62.7811633 146.205405,63.2335352 148.99027,63.2335352 L148.99027,63.2335352 C150.320222,63.2335352 151.583229,63.0857305 152.779293,62.7901211 C153.966431,62.5034696 155.256216,62.0107873 156.648649,61.3120742 L156.648649,61.3120742 C155.488288,64.5189881 154.069078,66.8480318 152.391019,68.2992051 C150.704033,69.7593364 148.642162,70.489402 146.205405,70.489402 L146.205405,70.489402 Z M138.801414,26.8063967 C141.934387,26.5734923 144.719252,25.3373076 147.156008,23.0978425 C149.592765,20.8583775 151.493971,18.2382034 152.859626,15.2373202 C154.225281,12.2453949 154.908108,9.611784 154.908108,7.33648751 L154.908108,7.33648751 C154.908108,4.71183447 153.948579,3.39950795 152.029522,3.39950795 L152.029522,3.39950795 C149.708801,3.39950795 147.562134,5.36575826 145.589522,9.29825889 C143.625835,13.2307595 141.363132,19.0668055 138.801414,26.8063967 L138.801414,26.8063967 Z M111.568649,64.2816048 C112.8986,64.2816048 114.014331,64.0039112 114.915842,63.4485238 C115.817353,62.8931365 116.848288,62.0063084 118.008649,60.7880394 L118.008649,60.7880394 C113.884906,59.274161 110.836729,58.5172218 108.864116,58.5172218 L108.864116,58.5172218 C107.819792,58.5172218 107.03878,58.7053369 106.521081,59.081567 C105.994456,59.4577971 105.731143,59.9683952 105.731143,60.6133611 L105.731143,60.6133611 C105.731143,61.6076836 106.311324,62.4676382 107.471684,63.1932248 C108.632044,63.9188115 109.997699,64.2816048 111.568649,64.2816048 L111.568649,64.2816048 Z"></path>
            </g>
        </g>
    </g>
</svg>