<svg version="1.1" xmlns="http://www.w3.org/2000/svg" viewBox="0 0 1224.2268981933594 511.71315002441406" width="2448.4537963867188" height="1023.4263000488281">
  <!-- svg-source:excalidraw -->
  
  <defs>
    <style class="style-fonts">
      @font-face {
        font-family: "Virgil";
        src: url("https://excalidraw.com/Virgil.woff2");
      }
      @font-face {
        font-family: "Cascadia";
        src: url("https://excalidraw.com/Cascadia.woff2");
      }
      @font-face {
        font-family: "Assistant";
        src: url("https://excalidraw.com/Assistant-Regular.woff2");
      }
    </style>
    
  </defs>
  <rect x="0" y="0" width="1224.2268981933594" height="511.71315002441406" fill="#ffffff"></rect><g stroke-linecap="round" transform="translate(10 166.95408630371094) rotate(0 30 70)"><path d="M15 0 C21.74 1.59, 31.46 -1.44, 45 0 M15 0 C22.59 -0.36, 31.03 -0.63, 45 0 M45 0 C55.99 1.23, 58.01 6.12, 60 15 M45 0 C55.58 1.58, 61.62 3, 60 15 M60 15 C59.76 51.65, 60.82 88.41, 60 125 M60 15 C61.57 56.47, 60.16 97.56, 60 125 M60 125 C60.91 134.54, 53.05 140.25, 45 140 M60 125 C61.07 135.66, 57.22 137.87, 45 140 M45 140 C36.01 141, 30.48 138.66, 15 140 M45 140 C39.31 139.34, 31.91 139.54, 15 140 M15 140 C6.59 140.79, -1.86 134.9, 0 125 M15 140 C7.04 138.17, -1.61 132.74, 0 125 M0 125 C-1.98 82.23, -2.91 40.41, 0 15 M0 125 C0.24 91.24, 0.99 58.34, 0 15 M0 15 C-1.14 4.56, 3.9 -1.58, 15 0 M0 15 C-0.17 5.65, 7.14 0.54, 15 0" stroke="#1e1e1e" stroke-width="1" fill="none"></path></g><g transform="translate(33.33000183105469 174.45408630371094) rotate(0 6.6699981689453125 62.5)"><text x="6.6699981689453125" y="17.52" font-family="Virgil, Segoe UI Emoji" font-size="20px" fill="#1e1e1e" text-anchor="middle" style="white-space: pre;" direction="ltr" dominant-baseline="alphabetic">a</text><text x="6.6699981689453125" y="42.519999999999996" font-family="Virgil, Segoe UI Emoji" font-size="20px" fill="#1e1e1e" text-anchor="middle" style="white-space: pre;" direction="ltr" dominant-baseline="alphabetic">b</text><text x="6.6699981689453125" y="67.52" font-family="Virgil, Segoe UI Emoji" font-size="20px" fill="#1e1e1e" text-anchor="middle" style="white-space: pre;" direction="ltr" dominant-baseline="alphabetic">a</text><text x="6.6699981689453125" y="92.52" font-family="Virgil, Segoe UI Emoji" font-size="20px" fill="#1e1e1e" text-anchor="middle" style="white-space: pre;" direction="ltr" dominant-baseline="alphabetic">b</text><text x="6.6699981689453125" y="117.52" font-family="Virgil, Segoe UI Emoji" font-size="20px" fill="#1e1e1e" text-anchor="middle" style="white-space: pre;" direction="ltr" dominant-baseline="alphabetic">c</text></g><g transform="translate(11.65478515625 143.97828674316406) rotate(0 28.647987365722656 10)"><text x="0" y="14.016" font-family="Virgil, Segoe UI Emoji" font-size="16px" fill="#1e1e1e" text-anchor="start" style="white-space: pre;" direction="ltr" dominant-baseline="alphabetic">200MB</text></g><g stroke-linecap="round" transform="translate(147.73089599609375 145.17185974121094) rotate(0 30 42.5)"><path d="M15 0 C25.75 -0.82, 38.28 -1.32, 45 0 M15 0 C23.4 0.66, 33.04 -0.63, 45 0 M45 0 C56.03 -0.16, 61.95 4.35, 60 15 M45 0 C55.78 -1.91, 58.64 4.74, 60 15 M60 15 C61.73 25.87, 61.83 41.6, 60 70 M60 15 C59.26 30.39, 60.63 44.17, 60 70 M60 70 C58.94 81.61, 55.28 86.92, 45 85 M60 70 C57.83 77.79, 56.35 86.9, 45 85 M45 85 C37.22 83.39, 29.99 85.16, 15 85 M45 85 C38.47 84.79, 32.47 85.73, 15 85 M15 85 C6.59 85.48, -0.94 81.17, 0 70 M15 85 C4.46 82.93, 1.75 80.06, 0 70 M0 70 C-1.42 56.49, -2.02 47.81, 0 15 M0 70 C1.25 57.63, 0.27 43.44, 0 15 M0 15 C1.93 6.8, 3.79 -1.09, 15 0 M0 15 C0.55 3.17, 5.04 -0.01, 15 0" stroke="#1e1e1e" stroke-width="1" fill="none"></path></g><g transform="translate(171.06089782714844 150.17185974121094) rotate(0 6.6699981689453125 37.5)"><text x="6.6699981689453125" y="17.52" font-family="Virgil, Segoe UI Emoji" font-size="20px" fill="#1e1e1e" text-anchor="middle" style="white-space: pre;" direction="ltr" dominant-baseline="alphabetic">a</text><text x="6.6699981689453125" y="42.519999999999996" font-family="Virgil, Segoe UI Emoji" font-size="20px" fill="#1e1e1e" text-anchor="middle" style="white-space: pre;" direction="ltr" dominant-baseline="alphabetic">b</text><text x="6.6699981689453125" y="67.52" font-family="Virgil, Segoe UI Emoji" font-size="20px" fill="#1e1e1e" text-anchor="middle" style="white-space: pre;" direction="ltr" dominant-baseline="alphabetic">a</text></g><g transform="translate(145.01849365234375 121.44816589355469) rotate(0 34.71997833251953 10)"><text x="0" y="14.016" font-family="Virgil, Segoe UI Emoji" font-size="16px" fill="#1e1e1e" text-anchor="start" style="white-space: pre;" direction="ltr" dominant-baseline="alphabetic">0-128MB</text></g><g stroke-linecap="round" transform="translate(147.935302734375 268.0779266357422) rotate(0 30 42.5)"><path d="M15 0 C25.6 -0.84, 36.02 -1.53, 45 0 M15 0 C22.26 -1.22, 26.99 0.67, 45 0 M45 0 C56.49 -0.37, 58.22 4.81, 60 15 M45 0 C56.41 -1.16, 59.15 3.82, 60 15 M60 15 C61.71 35.85, 60.78 53.9, 60 70 M60 15 C59.84 35.33, 59.38 55.77, 60 70 M60 70 C60.97 79.99, 54.79 85.58, 45 85 M60 70 C60.06 80.85, 53.63 85.79, 45 85 M45 85 C35.12 86.35, 28.86 85.39, 15 85 M45 85 C34.3 85.36, 21.87 85.11, 15 85 M15 85 C6.03 83.91, -1.93 79.31, 0 70 M15 85 C3.35 87.2, 0.65 79.57, 0 70 M0 70 C-0.09 54.2, 1.2 36.03, 0 15 M0 70 C0.53 57.87, 0.3 45.76, 0 15 M0 15 C1.51 5.26, 5.11 -0.35, 15 0 M0 15 C0.68 6.54, 5.8 -0.81, 15 0" stroke="#1e1e1e" stroke-width="1" fill="none"></path></g><g transform="translate(172.85530853271484 285.5779266357422) rotate(0 5.079994201660156 25)"><text x="5.079994201660156" y="17.52" font-family="Virgil, Segoe UI Emoji" font-size="20px" fill="#1e1e1e" text-anchor="middle" style="white-space: pre;" direction="ltr" dominant-baseline="alphabetic">b</text><text x="5.079994201660156" y="42.519999999999996" font-family="Virgil, Segoe UI Emoji" font-size="20px" fill="#1e1e1e" text-anchor="middle" style="white-space: pre;" direction="ltr" dominant-baseline="alphabetic">c</text></g><g transform="translate(141.80333709716797 246.9861297607422) rotate(0 45.91997528076172 10)"><text x="0" y="14.016" font-family="Virgil, Segoe UI Emoji" font-size="16px" fill="#1e1e1e" text-anchor="start" style="white-space: pre;" direction="ltr" dominant-baseline="alphabetic">128-200MB</text></g><g stroke-linecap="round"><g transform="translate(74.003173828125 235.9496307373047) rotate(0 33.987213134765625 -22.396575927734375)"><path d="M-0.88 0.38 C10.44 -6.79, 55.74 -35.98, 67.19 -43.71 M0.86 -0.47 C12.63 -7.89, 58.46 -37.79, 69.49 -45.26" stroke="#1e1e1e" stroke-width="1" fill="none"></path></g><g transform="translate(74.003173828125 235.9496307373047) rotate(0 33.987213134765625 -22.396575927734375)"><path d="M54.63 -25.16 C58.9 -31.13, 63.61 -34.81, 69.49 -45.26 M54.63 -25.16 C57.32 -28.16, 59.82 -33.43, 69.49 -45.26" stroke="#1e1e1e" stroke-width="1" fill="none"></path></g><g transform="translate(74.003173828125 235.9496307373047) rotate(0 33.987213134765625 -22.396575927734375)"><path d="M45.18 -39.42 C51.61 -41.93, 58.56 -42.23, 69.49 -45.26 M45.18 -39.42 C49.83 -39.54, 54.22 -41.95, 69.49 -45.26" stroke="#1e1e1e" stroke-width="1" fill="none"></path></g></g><mask></mask><g stroke-linecap="round"><g transform="translate(76.4091796875 241.1121063232422) rotate(0 32.284088134765625 35.820068359375)"><path d="M-0.08 0.48 C10.67 12.64, 54.43 60.25, 65.14 71.98 M-1.59 -0.32 C9 11.55, 53.7 58.03, 64.48 70.04" stroke="#1e1e1e" stroke-width="1" fill="none"></path></g><g transform="translate(76.4091796875 241.1121063232422) rotate(0 32.284088134765625 35.820068359375)"><path d="M42.21 58.7 C50.72 63.64, 58.31 65.95, 64.48 70.04 M42.21 58.7 C47.38 60.46, 53.1 64.46, 64.48 70.04" stroke="#1e1e1e" stroke-width="1" fill="none"></path></g><g transform="translate(76.4091796875 241.1121063232422) rotate(0 32.284088134765625 35.820068359375)"><path d="M54.71 47.03 C58.75 56.05, 61.95 62.46, 64.48 70.04 M54.71 47.03 C56.91 51.6, 59.7 58.34, 64.48 70.04" stroke="#1e1e1e" stroke-width="1" fill="none"></path></g></g><mask></mask><g transform="translate(83.271240234375 190.3179168701172) rotate(0 16.663978576660156 10)"><text x="0" y="14.016" font-family="Virgil, Segoe UI Emoji" font-size="16px" fill="#1e1e1e" text-anchor="start" style="white-space: pre;" direction="ltr" dominant-baseline="alphabetic">split</text></g><g transform="translate(76.0538558959961 277.50721740722656) rotate(0 16.663978576660156 10)"><text x="0" y="14.016" font-family="Virgil, Segoe UI Emoji" font-size="16px" fill="#1e1e1e" text-anchor="start" style="white-space: pre;" direction="ltr" dominant-baseline="alphabetic">split</text></g><g stroke-linecap="round"><g transform="translate(213.717041015625 310.5006561279297) rotate(0 26.768707275390625 -0.237060546875)"><path d="M0.75 0.15 C9.35 -0.09, 43.86 -0.6, 52.59 -0.9 M-0.32 -0.82 C8.56 -0.94, 46.06 0.43, 54.8 0.41" stroke="#1e1e1e" stroke-width="1" fill="none"></path></g><g transform="translate(213.717041015625 310.5006561279297) rotate(0 26.768707275390625 -0.237060546875)"><path d="M31.14 8.49 C40.44 3.66, 48.55 1.4, 54.8 0.41 M31.14 8.49 C36.53 6.23, 40.66 4.73, 54.8 0.41" stroke="#1e1e1e" stroke-width="1" fill="none"></path></g><g transform="translate(213.717041015625 310.5006561279297) rotate(0 26.768707275390625 -0.237060546875)"><path d="M31.48 -8.61 C40.72 -6.87, 48.71 -2.56, 54.8 0.41 M31.48 -8.61 C36.89 -7.4, 40.96 -5.44, 54.8 0.41" stroke="#1e1e1e" stroke-width="1" fill="none"></path></g></g><mask></mask><g transform="translate(325.94378662109375 30.571197509765625) rotate(0 45.51996612548828 30)"><text x="0" y="14.016" font-family="Virgil, Segoe UI Emoji" font-size="16px" fill="#1e1e1e" text-anchor="start" style="white-space: pre;" direction="ltr" dominant-baseline="alphabetic">&lt;K, V&gt;</text><text x="0" y="34.016" font-family="Virgil, Segoe UI Emoji" font-size="16px" fill="#1e1e1e" text-anchor="start" style="white-space: pre;" direction="ltr" dominant-baseline="alphabetic">K -&gt; offset</text><text x="0" y="54.016" font-family="Virgil, Segoe UI Emoji" font-size="16px" fill="#1e1e1e" text-anchor="start" style="white-space: pre;" direction="ltr" dominant-baseline="alphabetic">V -&gt; value</text></g><g stroke-linecap="round" transform="translate(280.3271484375 138.96580505371094) rotate(0 81.11920166015625 35.1661376953125)"><path d="M102.5 9 C110.44 14.3, 120.62 15.87, 141.74 27 M102.5 9 C114.88 15.64, 128.76 21.44, 141.74 27 M141.74 27 C161.35 36.33, 162.13 36.1, 141.74 45 M141.74 27 C159.95 33.72, 162.76 35, 141.74 45 M141.74 45 C130.17 51.87, 117.31 54.02, 102.5 61.33 M141.74 45 C128.26 50.52, 115.01 56.34, 102.5 61.33 M102.5 61.33 C82.79 70.64, 82.33 71.55, 61.5 61.33 M102.5 61.33 C83.54 71.04, 81.24 72.42, 61.5 61.33 M61.5 61.33 C50.49 58.1, 39.97 54.98, 20.5 45 M61.5 61.33 C52.43 57.28, 41.39 52.81, 20.5 45 M20.5 45 C1.24 35.46, -1.04 35.28, 20.5 27 M20.5 45 C-0.34 36.13, 2.11 33.92, 20.5 27 M20.5 27 C36.53 20.38, 52.31 13.24, 61.5 9 M20.5 27 C28.37 24.29, 36.55 20.29, 61.5 9 M61.5 9 C80.15 -0.06, 80.36 -1.9, 102.5 9 M61.5 9 C82.02 1.72, 82.75 0.03, 102.5 9" stroke="#1e1e1e" stroke-width="1" fill="none"></path></g><g transform="translate(334.2187728881836 164.0488739013672) rotate(0 27.16797637939453 10)"><text x="27.16797637939453" y="14.016" font-family="Virgil, Segoe UI Emoji" font-size="16px" fill="#1e1e1e" text-anchor="middle" style="white-space: pre;" direction="ltr" dominant-baseline="alphabetic">Mapper</text></g><g stroke-linecap="round" transform="translate(269.4085693359375 93.85096740722656) rotate(0 93.18792724609375 66.40951538085938)"><path d="M32 0 C67.55 -0.22, 103.58 -0.39, 154.38 0 M32 0 C78.88 1.62, 125.99 1.04, 154.38 0 M154.38 0 C177.51 -0.55, 186.59 10.89, 186.38 32 M154.38 0 C177.59 1.45, 184.36 11.88, 186.38 32 M186.38 32 C185.32 54.56, 184.65 74.6, 186.38 100.82 M186.38 32 C186.41 47.68, 187.55 64.45, 186.38 100.82 M186.38 100.82 C187.85 121.19, 175.86 131.7, 154.38 132.82 M186.38 100.82 C185.38 120.76, 173.61 133.3, 154.38 132.82 M154.38 132.82 C111.37 132.86, 68.69 132.39, 32 132.82 M154.38 132.82 C124.72 131.69, 95.5 131.56, 32 132.82 M32 132.82 C10.64 132.53, 1.42 120.93, 0 100.82 M32 132.82 C9.62 132.82, 1.13 120.44, 0 100.82 M0 100.82 C-0.66 83.07, -0.53 66.09, 0 32 M0 100.82 C-0.18 78.13, -0.24 57.16, 0 32 M0 32 C1.61 9.92, 11.47 0.2, 32 0 M0 32 C0.33 9.68, 9.53 1.15, 32 0" stroke="#1e1e1e" stroke-width="1" fill="none"></path></g><g transform="translate(330.1815185546875 103.81843566894531) rotate(0 35.415977478027344 10)"><text x="0" y="14.016" font-family="Virgil, Segoe UI Emoji" font-size="16px" fill="#1e1e1e" text-anchor="start" style="white-space: pre;" direction="ltr" dominant-baseline="alphabetic">MapTask</text></g><g stroke-linecap="round" transform="translate(282.4593505859375 279.57090759277344) rotate(0 81.11920166015625 35.1661376953125)"><path d="M102.5 9 C117.1 16.94, 131.68 20.48, 141.74 27 M102.5 9 C117.77 15.68, 132.55 24.09, 141.74 27 M141.74 27 C162.72 37.43, 160.61 34.54, 141.74 45 M141.74 27 C164.53 34.54, 160.36 36.75, 141.74 45 M141.74 45 C131.27 51.18, 118.65 55.58, 102.5 61.33 M141.74 45 C132.95 48.83, 125.34 52.45, 102.5 61.33 M102.5 61.33 C83.72 72.1, 80.55 70.11, 61.5 61.33 M102.5 61.33 C83.06 69.65, 80.43 69.53, 61.5 61.33 M61.5 61.33 C47.16 56.2, 30.31 50.15, 20.5 45 M61.5 61.33 C52.38 58.7, 44.21 53.89, 20.5 45 M20.5 45 C1.36 36.13, 0.77 37.21, 20.5 27 M20.5 45 C-0.32 35.85, 1.25 37.67, 20.5 27 M20.5 27 C36.04 19.12, 48.88 12.82, 61.5 9 M20.5 27 C35.91 20.18, 51.22 14.45, 61.5 9 M61.5 9 C82.83 1.79, 81.63 1.52, 102.5 9 M61.5 9 C83.78 -0.28, 80.75 1.41, 102.5 9" stroke="#1e1e1e" stroke-width="1" fill="none"></path></g><g transform="translate(336.3509750366211 304.6539764404297) rotate(0 27.16797637939453 10)"><text x="27.16797637939453" y="14.016" font-family="Virgil, Segoe UI Emoji" font-size="16px" fill="#1e1e1e" text-anchor="middle" style="white-space: pre;" direction="ltr" dominant-baseline="alphabetic">Mapper</text></g><g stroke-linecap="round" transform="translate(271.540771484375 234.45606994628906) rotate(0 93.18792724609375 66.40951538085938)"><path d="M32 0 C81.36 -0.83, 125.97 1.19, 154.38 0 M32 0 C62.36 -0.39, 91.43 -1.83, 154.38 0 M154.38 0 C177.7 -1.27, 184.74 11.32, 186.38 32 M154.38 0 C175.27 -2.07, 186.13 11.47, 186.38 32 M186.38 32 C184.22 58.16, 184.69 83.29, 186.38 100.82 M186.38 32 C187.19 58.41, 185.6 82.94, 186.38 100.82 M186.38 100.82 C187.3 121.56, 174.35 132.12, 154.38 132.82 M186.38 100.82 C188.15 123.8, 173.8 134.24, 154.38 132.82 M154.38 132.82 C107.57 134.49, 65.79 133.2, 32 132.82 M154.38 132.82 C111.74 131.95, 68.14 132.49, 32 132.82 M32 132.82 C10.38 132.69, 1.09 123.6, 0 100.82 M32 132.82 C11.55 133.56, 0.47 124.14, 0 100.82 M0 100.82 C1.25 85.74, -2.07 71.31, 0 32 M0 100.82 C0.43 84.19, -0.17 66.52, 0 32 M0 32 C1.55 10.42, 9.58 1.22, 32 0 M0 32 C-0.08 10.73, 10.16 -2.28, 32 0" stroke="#1e1e1e" stroke-width="1" fill="none"></path></g><g transform="translate(332.313720703125 244.4235382080078) rotate(0 35.415977478027344 10)"><text x="0" y="14.016" font-family="Virgil, Segoe UI Emoji" font-size="16px" fill="#1e1e1e" text-anchor="start" style="white-space: pre;" direction="ltr" dominant-baseline="alphabetic">MapTask</text></g><g stroke-linecap="round"><g transform="translate(216.436279296875 189.5989227294922) rotate(0 25.557708740234375 -12.82415771484375)"><path d="M-0.59 -0.96 C7.73 -5.21, 42.03 -21.56, 50.75 -25.63 M1.3 1.15 C9.36 -2.88, 41.28 -19.91, 49.61 -24.08" stroke="#1e1e1e" stroke-width="1" fill="none"></path></g><g transform="translate(216.436279296875 189.5989227294922) rotate(0 25.557708740234375 -12.82415771484375)"><path d="M32.69 -5.68 C37.34 -12.97, 45.19 -18.07, 49.61 -24.08 M32.69 -5.68 C38.47 -11.61, 43.87 -17.76, 49.61 -24.08" stroke="#1e1e1e" stroke-width="1" fill="none"></path></g><g transform="translate(216.436279296875 189.5989227294922) rotate(0 25.557708740234375 -12.82415771484375)"><path d="M24.82 -20.86 C32.35 -22.53, 43.1 -22.05, 49.61 -24.08 M24.82 -20.86 C33.2 -21.81, 41.16 -23.03, 49.61 -24.08" stroke="#1e1e1e" stroke-width="1" fill="none"></path></g></g><mask></mask><g stroke-linecap="round" transform="translate(564.1206665039062 84.36610412597656) rotate(0 70.98529052734375 69.536376953125)"><path d="M86.95 2.07 C96.55 3.25, 107.47 8.54, 115.5 14.7 C123.53 20.87, 130.66 29.86, 135.15 39.05 C139.64 48.24, 142.54 59.47, 142.43 69.83 C142.33 80.18, 139.11 91.99, 134.5 101.19 C129.89 110.38, 122.67 118.84, 114.75 124.98 C106.84 131.13, 97.12 136.18, 87 138.06 C76.89 139.94, 64.06 138.76, 54.07 136.27 C44.09 133.78, 34.82 129.35, 27.08 123.1 C19.34 116.85, 12.3 107.66, 7.63 98.76 C2.97 89.86, -0.84 79.69, -0.91 69.71 C-0.98 59.72, 2.67 48.06, 7.21 38.83 C11.75 29.61, 18.37 20.54, 26.33 14.35 C34.29 8.15, 43.63 3.28, 54.98 1.67 C66.32 0.07, 86.89 3.58, 94.41 4.72 C101.92 5.87, 100.38 7.61, 100.05 8.53 M90.44 4.09 C100.07 5.69, 111.06 11.8, 118.89 18.23 C126.72 24.66, 133.61 33.29, 137.42 42.66 C141.23 52.02, 142.64 64.32, 141.77 74.43 C140.9 84.54, 137.1 94.79, 132.19 103.32 C127.27 111.84, 120.51 119.75, 112.25 125.57 C104 131.39, 92.87 136.73, 82.67 138.23 C72.47 139.74, 61.18 137.34, 51.06 134.61 C40.93 131.88, 29.42 128.54, 21.93 121.84 C14.44 115.14, 9.98 103.78, 6.13 94.43 C2.28 85.08, -1.9 75.71, -1.15 65.74 C-0.4 55.76, 5.23 43.35, 10.62 34.59 C16.02 25.84, 23.21 19.04, 31.22 13.22 C39.24 7.4, 48.68 1.36, 58.71 -0.34 C68.73 -2.05, 86.04 2.02, 91.37 2.99 C96.71 3.96, 91.01 4.36, 90.72 5.48" stroke="#1e1e1e" stroke-width="1" fill="none"></path></g><g stroke-linecap="round"><g transform="translate(636.1987915039062 100.88252258300781) rotate(0 24.4263916015625 53.2745361328125)"><path d="M-0.81 -0.69 C7.16 7.72, 46.76 31.82, 48.1 49.71 C49.44 67.6, 14.04 97.19, 7.24 106.64 M0.97 1.56 C9.29 10.22, 48.96 33.34, 50.41 51.08 C51.86 68.82, 16.88 98.61, 9.65 108" stroke="#1971c2" stroke-width="1" fill="none"></path></g><g transform="translate(636.1987915039062 100.88252258300781) rotate(0 24.4263916015625 53.2745361328125)"><path d="M19.48 85.01 C14.99 91.16, 12.43 98.37, 9.65 108 M19.48 85.01 C16.03 92.42, 13.41 98.75, 9.65 108" stroke="#1971c2" stroke-width="1" fill="none"></path></g><g transform="translate(636.1987915039062 100.88252258300781) rotate(0 24.4263916015625 53.2745361328125)"><path d="M31.96 96.71 C23.49 98.97, 16.87 102.38, 9.65 108 M31.96 96.71 C24.76 100.5, 18.31 103.24, 9.65 108" stroke="#1971c2" stroke-width="1" fill="none"></path></g></g><mask></mask><g stroke-linecap="round"><g transform="translate(627.5006283707575 101.68055228377693) rotate(0 -16.8623046875 53.2745361328125)"><path d="M-0.49 -0.28 C-7.48 8.65, -44.06 36.83, -42.58 54.47 C-41.1 72.11, -0.15 96.79, 8.39 105.57 M1.46 -1.47 C-5.09 7.49, -41.28 37.46, -40.23 55.43 C-39.19 73.41, -0.49 98.13, 7.74 106.37" stroke="#e03131" stroke-width="1" fill="none"></path></g><g transform="translate(627.5006283707575 101.68055228377693) rotate(0 -16.8623046875 53.2745361328125)"><path d="M-15.87 98.16 C-10.38 99.14, -5.84 102.75, 7.74 106.37 M-15.87 98.16 C-10.48 99.35, -4.8 101.43, 7.74 106.37" stroke="#e03131" stroke-width="1" fill="none"></path></g><g transform="translate(627.5006283707575 101.68055228377693) rotate(0 -16.8623046875 53.2745361328125)"><path d="M-5.07 84.9 C-2.18 89.15, -0.34 96.08, 7.74 106.37 M-5.07 84.9 C-1.98 89.05, 1.34 94.02, 7.74 106.37" stroke="#e03131" stroke-width="1" fill="none"></path></g></g><mask></mask><g stroke-linecap="round"><g transform="translate(467.3731689453125 160.07667541503906) rotate(0 44.62249755859375 -0.2735137939453125)"><path d="M1.1 0.24 C15.94 0.36, 74.3 0.28, 89.12 0.1 M0.22 -0.68 C14.88 -0.86, 73.2 -1.85, 88.11 -1.68" stroke="#1e1e1e" stroke-width="1" fill="none"></path></g><g transform="translate(467.3731689453125 160.07667541503906) rotate(0 44.62249755859375 -0.2735137939453125)"><path d="M64.66 6.98 C72.38 3.87, 80.34 2.71, 88.11 -1.68 M64.66 6.98 C70.49 5.52, 77.69 1.72, 88.11 -1.68" stroke="#1e1e1e" stroke-width="1" fill="none"></path></g><g transform="translate(467.3731689453125 160.07667541503906) rotate(0 44.62249755859375 -0.2735137939453125)"><path d="M64.58 -10.12 C72.23 -7.92, 80.22 -3.77, 88.11 -1.68 M64.58 -10.12 C70.4 -6.9, 77.62 -6.01, 88.11 -1.68" stroke="#1e1e1e" stroke-width="1" fill="none"></path></g></g><mask></mask><g transform="translate(608.56396484375 58.13584899902344) rotate(0 25.95197296142578 10)"><text x="0" y="14.016" font-family="Virgil, Segoe UI Emoji" font-size="16px" fill="#1e1e1e" text-anchor="start" style="white-space: pre;" direction="ltr" dominant-baseline="alphabetic">Buffer</text></g><g transform="translate(711.6087646484375 108.56544494628906) rotate(0 23.81598663330078 10)"><text x="0" y="14.016" font-family="Virgil, Segoe UI Emoji" font-size="16px" fill="#1e1e1e" text-anchor="start" style="white-space: pre;" direction="ltr" dominant-baseline="alphabetic">&lt;K, V&gt;</text></g><g transform="translate(531.026481628418 101.51399230957031) rotate(0 18.9119873046875 10)"><text x="0" y="14.016" font-family="Virgil, Segoe UI Emoji" font-size="16px" fill="#1e1e1e" text-anchor="start" style="white-space: pre;" direction="ltr" dominant-baseline="alphabetic">index</text></g><g stroke-linecap="round" transform="translate(611.5225219726562 126.89942932128906) rotate(0 24.45654296875 23.594207763671875)"><path d="M27.47 0.13 C32.55 0.34, 38.69 3.82, 42.33 7.42 C45.97 11.03, 49.01 16.79, 49.34 21.77 C49.67 26.75, 47.49 33.12, 44.28 37.3 C41.08 41.48, 35.22 45.59, 30.11 46.86 C24.99 48.13, 18.19 47.29, 13.59 44.91 C8.98 42.53, 4.64 37.28, 2.46 32.58 C0.29 27.88, -0.94 21.58, 0.52 16.73 C1.99 11.89, 6.71 6.24, 11.28 3.52 C15.84 0.8, 25.1 0.92, 27.92 0.42 C30.75 -0.08, 28.3 0.2, 28.23 0.53 M23.57 0.41 C28.57 -0.07, 36.04 2.13, 40.22 5.22 C44.4 8.31, 47.66 14.12, 48.65 18.97 C49.64 23.81, 48.6 29.77, 46.15 34.28 C43.7 38.79, 38.85 44.19, 33.94 46.03 C29.03 47.87, 21.74 47.05, 16.68 45.35 C11.62 43.64, 6.32 40.1, 3.58 35.78 C0.85 31.47, -0.51 24.48, 0.27 19.46 C1.05 14.44, 4.26 9, 8.27 5.65 C12.28 2.29, 21.69 0.32, 24.35 -0.65 C27.02 -1.61, 24.34 -0.72, 24.27 -0.14" stroke="#1e1e1e" stroke-width="1" fill="none"></path></g><g stroke-linecap="round" transform="translate(571.5059814453125 274.3122100830078) rotate(0 67.60183715820312 65.66024780273438)"><path d="M32 0 C55.8 -1.95, 84.54 0.76, 103.2 0 M32 0 C56.91 0.34, 80.65 -0.88, 103.2 0 M103.2 0 C125.06 -1, 134.23 10.31, 135.2 32 M103.2 0 C124.94 1.76, 136.35 12.75, 135.2 32 M135.2 32 C134.12 47.09, 135.91 64.02, 135.2 99.32 M135.2 32 C135.51 56.77, 134.21 82.83, 135.2 99.32 M135.2 99.32 C134.61 118.73, 123.75 132.32, 103.2 131.32 M135.2 99.32 C133.07 119.76, 123.96 133.48, 103.2 131.32 M103.2 131.32 C86.6 130.54, 71.05 133.6, 32 131.32 M103.2 131.32 C82.59 131.25, 62.78 130.93, 32 131.32 M32 131.32 C8.8 130.29, 0.39 121.52, 0 99.32 M32 131.32 C10.96 133.05, -2.16 121.49, 0 99.32 M0 99.32 C1.41 82.51, 0.04 62.02, 0 32 M0 99.32 C-0.86 86.24, -1.14 72.15, 0 32 M0 32 C-1.34 9.14, 12.32 1.39, 32 0 M0 32 C-1.89 10.09, 9.03 0.01, 32 0" stroke="#1e1e1e" stroke-width="1" fill="none"></path></g><g stroke-linecap="round" transform="translate(591.8585815429688 284.5225372314453) rotate(0 46.62274169921875 25.06329345703125)"><path d="M12.53 0 C31.49 0.27, 54.26 1.08, 80.71 0 M12.53 0 C33.03 0.04, 55.59 -0.45, 80.71 0 M80.71 0 C87.63 -1.44, 94.79 3.33, 93.25 12.53 M80.71 0 C90.66 2.21, 92.8 4.31, 93.25 12.53 M93.25 12.53 C94.63 17.87, 92.64 23.92, 93.25 37.59 M93.25 12.53 C92.57 21.45, 94.36 29.59, 93.25 37.59 M93.25 37.59 C92.25 47.46, 89.05 48.32, 80.71 50.13 M93.25 37.59 C92.62 43.78, 87.91 51.64, 80.71 50.13 M80.71 50.13 C61.95 50.89, 39.26 48.27, 12.53 50.13 M80.71 50.13 C62.24 50.5, 43.52 48.97, 12.53 50.13 M12.53 50.13 C2.81 49.06, -1.81 47, 0 37.59 M12.53 50.13 C6.28 49.17, 1.66 44.5, 0 37.59 M0 37.59 C0.47 29.01, 0.23 16.72, 0 12.53 M0 37.59 C-0.32 30.91, -0.2 25.44, 0 12.53 M0 12.53 C1.55 3.01, 4.86 1.89, 12.53 0 M0 12.53 C0.95 5.24, 4.8 -0.57, 12.53 0" stroke="#1e1e1e" stroke-width="1" fill="none"></path></g><g transform="translate(598.88134765625 299.58583068847656) rotate(0 39.5999755859375 10)"><text x="39.5999755859375" y="14.016" font-family="Virgil, Segoe UI Emoji" font-size="16px" fill="#1e1e1e" text-anchor="middle" style="white-space: pre;" direction="ltr" dominant-baseline="alphabetic">partition 1</text></g><g stroke-linecap="round" transform="translate(592.0181274414062 347.28343200683594) rotate(0 48.384307861328125 25.06329345703125)"><path d="M12.53 0 C31.92 -1.15, 48.3 -0.48, 84.24 0 M12.53 0 C39.23 0.32, 67.08 -0.6, 84.24 0 M84.24 0 C91.06 1.98, 95.92 3.75, 96.77 12.53 M84.24 0 C91.74 -1.41, 97.38 6.42, 96.77 12.53 M96.77 12.53 C95.43 20.52, 95.21 24.38, 96.77 37.59 M96.77 12.53 C96.06 20.65, 97.08 29.27, 96.77 37.59 M96.77 37.59 C98.68 46.14, 91.62 49.26, 84.24 50.13 M96.77 37.59 C96.62 47.36, 94.32 51.56, 84.24 50.13 M84.24 50.13 C59.76 50.26, 35.45 48.4, 12.53 50.13 M84.24 50.13 C68.45 49.7, 53.15 49.48, 12.53 50.13 M12.53 50.13 C3.72 52.02, -1 45.23, 0 37.59 M12.53 50.13 C5.12 51.93, 2.02 46.73, 0 37.59 M0 37.59 C0.74 29.83, 1.59 20.86, 0 12.53 M0 37.59 C-0.31 28.97, 0.17 19.29, 0 12.53 M0 12.53 C1.84 5.27, 2.89 0.34, 12.53 0 M0 12.53 C0.49 4.22, 6.1 -0.1, 12.53 0" stroke="#1e1e1e" stroke-width="1" fill="none"></path></g><g transform="translate(597.2744598388672 362.3467254638672) rotate(0 43.12797546386719 10)"><text x="43.12797546386719" y="14.016" font-family="Virgil, Segoe UI Emoji" font-size="16px" fill="#1e1e1e" text-anchor="middle" style="white-space: pre;" direction="ltr" dominant-baseline="alphabetic">partition 2</text></g><g stroke-linecap="round"><g transform="translate(644.12353515625 226.32569885253906) rotate(0 0 18.638092041015625)"><path d="M0.32 0.35 C0.21 6.54, -0.16 30.68, -0.27 36.88 M-0.17 0.06 C-0.15 6.32, 0.93 31.29, 0.83 37.38" stroke="#1e1e1e" stroke-width="1" fill="none"></path></g><g transform="translate(644.12353515625 226.32569885253906) rotate(0 0 18.638092041015625)"><path d="M-5.85 19.97 C-2.76 26.1, -1.49 32.64, 0.83 37.38 M-5.85 19.97 C-4.05 25.91, -1.76 31.95, 0.83 37.38" stroke="#1e1e1e" stroke-width="1" fill="none"></path></g><g transform="translate(644.12353515625 226.32569885253906) rotate(0 0 18.638092041015625)"><path d="M6.9 19.75 C5.15 26, 1.58 32.63, 0.83 37.38 M6.9 19.75 C4.31 25.77, 2.2 31.89, 0.83 37.38" stroke="#1e1e1e" stroke-width="1" fill="none"></path></g></g><mask></mask><g stroke-linecap="round" transform="translate(748.0203857421875 282.3977813720703) rotate(0 71.20242309570312 20.350982666015625)"><path d="M10.18 0 C45.99 0.34, 79.26 -0.17, 132.23 0 M10.18 0 C54.41 0.05, 99.72 -0.05, 132.23 0 M132.23 0 C137.25 -0.98, 141.99 3.3, 142.4 10.18 M132.23 0 C138.37 2.05, 142.29 1.15, 142.4 10.18 M142.4 10.18 C142.76 17.11, 141.21 22.26, 142.4 30.53 M142.4 10.18 C142.45 15.34, 142.71 22.52, 142.4 30.53 M142.4 30.53 C143.97 36.24, 137.88 41.06, 132.23 40.7 M142.4 30.53 C140.62 36.21, 137.97 41.18, 132.23 40.7 M132.23 40.7 C100.89 41.26, 70.83 40.07, 10.18 40.7 M132.23 40.7 C100.27 41.88, 68.18 40.41, 10.18 40.7 M10.18 40.7 C4.97 39.08, -1.66 39.12, 0 30.53 M10.18 40.7 C3.54 39.2, -1.03 38.25, 0 30.53 M0 30.53 C0.28 24.78, -1.87 22.47, 0 10.18 M0 30.53 C1.03 23.18, 0.65 15.25, 0 10.18 M0 10.18 C-1.93 2.48, 1.77 -1.61, 10.18 0 M0 10.18 C-1.15 1.9, 3.57 -1.76, 10.18 0" stroke="#1e1e1e" stroke-width="1" fill="none"></path></g><g transform="translate(771.9828262329102 292.74876403808594) rotate(0 47.23998260498047 10)"><text x="47.23998260498047" y="14.016" font-family="Virgil, Segoe UI Emoji" font-size="16px" fill="#1e1e1e" text-anchor="middle" style="white-space: pre;" direction="ltr" dominant-baseline="alphabetic">&lt;a, 1&gt; &lt;c, 1&gt;</text></g><g stroke-linecap="round" transform="translate(748.7264709472656 346.1973419189453) rotate(0 71.20242309570312 20.350982666015625)"><path d="M10.18 0 C39.19 0.44, 68.25 0.1, 132.23 0 M10.18 0 C40.44 0.46, 70.21 -0.87, 132.23 0 M132.23 0 C139.12 1.77, 141.1 2.34, 142.4 10.18 M132.23 0 C141.27 1.74, 142.81 1.17, 142.4 10.18 M142.4 10.18 C143.05 16.66, 140.29 22.64, 142.4 30.53 M142.4 10.18 C142.35 17.92, 142.07 25.17, 142.4 30.53 M142.4 30.53 C140.93 36.2, 139.26 42.34, 132.23 40.7 M142.4 30.53 C143.2 37.18, 141.31 41.03, 132.23 40.7 M132.23 40.7 C100.34 41.59, 69.29 41.12, 10.18 40.7 M132.23 40.7 C92.19 39.35, 53.75 38.64, 10.18 40.7 M10.18 40.7 C1.74 42.37, 0.86 36.09, 0 30.53 M10.18 40.7 C1.78 40.24, 2.02 39.05, 0 30.53 M0 30.53 C-1.97 25.44, 0.1 15.7, 0 10.18 M0 30.53 C0.57 24.9, 0.03 17.84, 0 10.18 M0 10.18 C-1.87 3.24, 5.02 -0.95, 10.18 0 M0 10.18 C0.94 5.5, 3.63 -1.13, 10.18 0" stroke="#1e1e1e" stroke-width="1" fill="none"></path></g><g transform="translate(772.3289108276367 356.54832458496094) rotate(0 47.59998321533203 10)"><text x="47.59998321533203" y="14.016" font-family="Virgil, Segoe UI Emoji" font-size="16px" fill="#1e1e1e" text-anchor="middle" style="white-space: pre;" direction="ltr" dominant-baseline="alphabetic">&lt;a, 1&gt; &lt;e, 1&gt;</text></g><g stroke-linecap="round" transform="translate(736.5277709960938 269.5061492919922) rotate(0 83.82772827148438 67.62158203125)"><path d="M32 0 C74.38 -0.34, 116.55 0.98, 135.66 0 M135.66 0 C155.59 0.13, 167.67 10.52, 167.66 32 M167.66 32 C167.62 49.13, 166.77 66.58, 167.66 103.24 M167.66 103.24 C168.6 123.61, 158.95 135.85, 135.66 135.24 M135.66 135.24 C109.03 132.71, 82.96 133.21, 32 135.24 M32 135.24 C10.72 134.79, -0.58 125.31, 0 103.24 M0 103.24 C0.4 79.95, 1.82 58.81, 0 32 M0 32 C1.26 9.66, 12.28 -0.5, 32 0" stroke="#1e1e1e" stroke-width="1.5" fill="none" stroke-dasharray="8 9"></path></g><g transform="translate(778.8113403320312 242.5775909423828) rotate(0 39.5999755859375 10)"><text x="0" y="14.016" font-family="Virgil, Segoe UI Emoji" font-size="16px" fill="#1e1e1e" text-anchor="start" style="white-space: pre;" direction="ltr" dominant-baseline="alphabetic">partition 1</text></g><g stroke-linecap="round" transform="translate(1009.3282165527344 283.1305694580078) rotate(0 71.20242309570312 20.350982666015625)"><path d="M10.18 0 C48.13 1.23, 82.12 -1.86, 132.23 0 M10.18 0 C52.5 -0.61, 96.29 -0.53, 132.23 0 M132.23 0 C138.35 1.3, 143.33 5, 142.4 10.18 M132.23 0 C139.09 0.97, 141.14 4.65, 142.4 10.18 M142.4 10.18 C142.62 17.51, 143.07 23.05, 142.4 30.53 M142.4 10.18 C142.28 16.6, 142.92 22.78, 142.4 30.53 M142.4 30.53 C140.64 37.82, 139.22 40.28, 132.23 40.7 M142.4 30.53 C141.35 35.88, 137.19 40.15, 132.23 40.7 M132.23 40.7 C86.27 40.5, 36.85 41.72, 10.18 40.7 M132.23 40.7 C85.51 40.63, 40.01 40.9, 10.18 40.7 M10.18 40.7 C2.78 41.26, 0.75 36.58, 0 30.53 M10.18 40.7 C5.01 42.81, 0.75 37.04, 0 30.53 M0 30.53 C1.45 24.16, 0.48 23.05, 0 10.18 M0 30.53 C-0.15 24.17, -0.66 18.88, 0 10.18 M0 10.18 C1.21 1.84, 3.11 -0.52, 10.18 0 M0 10.18 C-1.83 1.3, 4.1 0.95, 10.18 0" stroke="#1e1e1e" stroke-width="1" fill="none"></path></g><g transform="translate(1034.514663696289 293.48155212402344) rotate(0 46.01597595214844 10)"><text x="46.01597595214844" y="14.016" font-family="Virgil, Segoe UI Emoji" font-size="16px" fill="#1e1e1e" text-anchor="middle" style="white-space: pre;" direction="ltr" dominant-baseline="alphabetic">&lt;b, 1&gt; &lt;b, 1&gt;</text></g><g stroke-linecap="round" transform="translate(1009.8623352050781 345.4827117919922) rotate(0 71.20242309570312 20.350982666015625)"><path d="M10.18 0 C37.49 0.38, 63.46 0.23, 132.23 0 M10.18 0 C57.25 -0.43, 102.95 -1.07, 132.23 0 M132.23 0 C139.91 0.76, 143.12 2.89, 142.4 10.18 M132.23 0 C136.79 -0.26, 141.82 1.8, 142.4 10.18 M142.4 10.18 C144.27 14.47, 142.52 17.07, 142.4 30.53 M142.4 10.18 C143.18 15.8, 141.62 23.11, 142.4 30.53 M142.4 30.53 C140.47 36.99, 139.81 42.03, 132.23 40.7 M142.4 30.53 C142.47 39.1, 138.47 40.74, 132.23 40.7 M132.23 40.7 C84.59 40.71, 38.36 40.14, 10.18 40.7 M132.23 40.7 C97.52 42.67, 63.27 41.76, 10.18 40.7 M10.18 40.7 C1.95 39.36, 1.35 37.66, 0 30.53 M10.18 40.7 C5.1 40.49, -1.81 36.84, 0 30.53 M0 30.53 C-0.69 23.24, -0.49 17.41, 0 10.18 M0 30.53 C0.76 25.03, -0.12 17.74, 0 10.18 M0 10.18 C1.13 1.62, 2.07 -0.43, 10.18 0 M0 10.18 C-0.33 5.02, 3.64 -0.54, 10.18 0" stroke="#1e1e1e" stroke-width="1" fill="none"></path></g><g transform="translate(1035.2247848510742 355.8336944580078) rotate(0 45.83997344970703 10)"><text x="45.83997344970703" y="14.016" font-family="Virgil, Segoe UI Emoji" font-size="16px" fill="#1e1e1e" text-anchor="middle" style="white-space: pre;" direction="ltr" dominant-baseline="alphabetic">&lt;b, 1&gt; &lt;f, 1&gt;</text></g><g stroke-linecap="round" transform="translate(996.324462890625 267.2804718017578) rotate(0 84.44393920898438 66.89024353027344)"><path d="M32 0 C64.18 -2.21, 99.64 -0.62, 136.89 0 M136.89 0 C157.83 1.37, 169.19 12.29, 168.89 32 M168.89 32 C168.86 52, 167.81 69.26, 168.89 101.78 M168.89 101.78 C170.57 124.88, 156.67 134.07, 136.89 133.78 M136.89 133.78 C101.05 133.89, 62.83 135.83, 32 133.78 M32 133.78 C9.7 133.63, -0.61 122.35, 0 101.78 M0 101.78 C0.26 75.21, 1.86 47.58, 0 32 M0 32 C0.48 9.05, 8.74 -0.74, 32 0" stroke="#1e1e1e" stroke-width="1.5" fill="none" stroke-dasharray="8 9"></path></g><g transform="translate(1035.6314086914062 239.1975860595703) rotate(0 43.12797546386719 10)"><text x="0" y="14.016" font-family="Virgil, Segoe UI Emoji" font-size="16px" fill="#1e1e1e" text-anchor="start" style="white-space: pre;" direction="ltr" dominant-baseline="alphabetic">partition 2</text></g><g stroke-linecap="round" transform="translate(709.864013671875 454.80580139160156) rotate(0 111.49777221679688 23.45367431640625)"><path d="M11.73 0 C50.54 0.8, 91.7 1.63, 211.27 0 M11.73 0 C62.96 0.44, 116.54 0.79, 211.27 0 M211.27 0 C219.67 -0.89, 223.49 2.7, 223 11.73 M211.27 0 C217.59 -1.61, 224.15 4.29, 223 11.73 M223 11.73 C221.04 19.42, 224.73 26.1, 223 35.18 M223 11.73 C222.4 17.45, 222.86 20.83, 223 35.18 M223 35.18 C224.48 42.15, 218.64 46.5, 211.27 46.91 M223 35.18 C221.48 44.7, 221.14 48.29, 211.27 46.91 M211.27 46.91 C166.58 45.62, 122.36 44.28, 11.73 46.91 M211.27 46.91 C143.25 48.5, 73.53 49.33, 11.73 46.91 M11.73 46.91 C3.69 48.44, -1.57 41.64, 0 35.18 M11.73 46.91 C2.4 47.62, -0.83 41.59, 0 35.18 M0 35.18 C1.56 29.19, 0.18 21.47, 0 11.73 M0 35.18 C-0.07 28.98, 0.7 24, 0 11.73 M0 11.73 C0 4.94, 3.07 1.16, 11.73 0 M0 11.73 C2.1 5.23, 3.03 1.73, 11.73 0" stroke="#1e1e1e" stroke-width="1" fill="none"></path></g><g transform="translate(723.9103393554688 470.99855041503906) rotate(0 102.8399658203125 10)"><text x="0" y="14.016" font-family="Virgil, Segoe UI Emoji" font-size="16px" fill="#1e1e1e" text-anchor="start" style="white-space: pre;" direction="ltr" dominant-baseline="alphabetic">&lt;a, 1&gt; &lt;a, 1&gt; &lt;c, 1&gt; &lt;e, 1&gt; </text></g><g stroke-linecap="round" transform="translate(967.3099060058594 452.1564483642578) rotate(0 111.49777221679688 23.45367431640625)"><path d="M11.73 0 C86.43 2.79, 158.03 3.66, 211.27 0 M11.73 0 C90.11 -1.3, 168.66 -1.14, 211.27 0 M211.27 0 C219.47 -1.61, 223.03 5.67, 223 11.73 M211.27 0 C221.26 0.98, 222.58 5.98, 223 11.73 M223 11.73 C224.89 20.12, 222.79 27.85, 223 35.18 M223 11.73 C223.65 19.7, 222.61 27.42, 223 35.18 M223 35.18 C221.4 43.43, 217.8 45.16, 211.27 46.91 M223 35.18 C222.16 43.62, 220.71 48.71, 211.27 46.91 M211.27 46.91 C144.71 45.89, 79.17 47.88, 11.73 46.91 M211.27 46.91 C170.23 47.92, 129.95 49.56, 11.73 46.91 M11.73 46.91 C2.97 47.56, 0.19 44.29, 0 35.18 M11.73 46.91 C4.99 48.96, 1.05 43.93, 0 35.18 M0 35.18 C0.18 27.39, -0.13 21.17, 0 11.73 M0 35.18 C0.95 28.86, 1.01 20.61, 0 11.73 M0 11.73 C-1.22 2.56, 4.86 -1.55, 11.73 0 M0 11.73 C-1.24 5.69, 3.14 1.52, 11.73 0" stroke="#1e1e1e" stroke-width="1" fill="none"></path></g><g transform="translate(981.3562316894531 468.3491973876953) rotate(0 99.85594940185547 10)"><text x="0" y="14.016" font-family="Virgil, Segoe UI Emoji" font-size="16px" fill="#1e1e1e" text-anchor="start" style="white-space: pre;" direction="ltr" dominant-baseline="alphabetic">&lt;b, 1&gt; &lt;b, 1&gt; &lt;b, 1&gt; &lt;f, 1&gt; </text></g><g stroke-linecap="round"><g transform="translate(690.3427734375 306.7190704345703) rotate(0 20.645416259765625 -1.4624786376953125)"><path d="M0.27 -0.48 C7.12 -0.93, 34.61 -2.28, 41.4 -2.66 M-0.25 0.46 C6.51 -0.15, 34.22 -3.06, 41.03 -3.49" stroke="#1e1e1e" stroke-width="1" fill="none"></path></g><g transform="translate(690.3427734375 306.7190704345703) rotate(0 20.645416259765625 -1.4624786376953125)"><path d="M22.27 5.25 C28.08 2.28, 36.14 -1.47, 41.03 -3.49 M22.27 5.25 C28.91 2.85, 34.2 -0.28, 41.03 -3.49" stroke="#1e1e1e" stroke-width="1" fill="none"></path></g><g transform="translate(690.3427734375 306.7190704345703) rotate(0 20.645416259765625 -1.4624786376953125)"><path d="M21.04 -8.86 C27.3 -6.79, 35.79 -5.51, 41.03 -3.49 M21.04 -8.86 C28.06 -6.64, 33.75 -5.16, 41.03 -3.49" stroke="#1e1e1e" stroke-width="1" fill="none"></path></g></g><mask></mask><g stroke-linecap="round"><g transform="translate(695.0303955078125 371.94508361816406) rotate(0 148.83065795898438 29.077117919921875)"><path d="M0.93 1.14 C18.05 11.03, 53.04 60.72, 102.48 60.03 C151.93 59.33, 265.21 7.27, 297.59 -3.04 M-0.04 0.7 C17.01 10.69, 52.47 61.74, 101.94 61.28 C151.41 60.82, 264.35 8.85, 296.79 -2.04" stroke="#1e1e1e" stroke-width="1" fill="none"></path></g><g transform="translate(695.0303955078125 371.94508361816406) rotate(0 148.83065795898438 29.077117919921875)"><path d="M278.02 14.48 C285.09 10.97, 287.54 4.95, 296.79 -2.04 M278.02 14.48 C282.04 10.54, 287.18 7.08, 296.79 -2.04" stroke="#1e1e1e" stroke-width="1" fill="none"></path></g><g transform="translate(695.0303955078125 371.94508361816406) rotate(0 148.83065795898438 29.077117919921875)"><path d="M271.79 -1.45 C280.7 -0.54, 284.89 -2.1, 296.79 -2.04 M271.79 -1.45 C277.24 -1.45, 283.92 -0.96, 296.79 -2.04" stroke="#1e1e1e" stroke-width="1" fill="none"></path></g></g><mask></mask><g stroke-linecap="round"><g transform="translate(821.3971557617188 411.3378448486328) rotate(0 0.095062255859375 18.2166748046875)"><path d="M0.3 0.54 C0.25 6.57, -0.18 29.89, -0.16 35.96 M-0.21 0.34 C-0.1 6.45, 0.82 30.45, 0.9 36.42" stroke="#1e1e1e" stroke-width="1" fill="none"></path></g><g transform="translate(821.3971557617188 411.3378448486328) rotate(0 0.095062255859375 18.2166748046875)"><path d="M-5.8 19.47 C-2.74 24.46, -2.21 31.06, 0.9 36.42 M-5.8 19.47 C-3.08 25.77, -0.31 32.5, 0.9 36.42" stroke="#1e1e1e" stroke-width="1" fill="none"></path></g><g transform="translate(821.3971557617188 411.3378448486328) rotate(0 0.095062255859375 18.2166748046875)"><path d="M6.66 19.14 C5.61 24.27, 2.04 30.98, 0.9 36.42 M6.66 19.14 C4.51 25.62, 2.4 32.48, 0.9 36.42" stroke="#1e1e1e" stroke-width="1" fill="none"></path></g></g><mask></mask><g stroke-linecap="round"><g transform="translate(1084.3187255859375 408.1913604736328) rotate(0 0.90240478515625 17.892730712890625)"><path d="M-0.47 0.55 C-0.15 6.56, 1.28 30.34, 1.65 36.23 M0.29 0.35 C0.55 6.21, 0.95 29.46, 1.14 35.5" stroke="#1e1e1e" stroke-width="1" fill="none"></path></g><g transform="translate(1084.3187255859375 408.1913604736328) rotate(0 0.90240478515625 17.892730712890625)"><path d="M-5.38 18.81 C-2.84 22.75, -1.38 27.14, 1.14 35.5 M-5.38 18.81 C-3.28 24.44, -1.2 29.9, 1.14 35.5" stroke="#1e1e1e" stroke-width="1" fill="none"></path></g><g transform="translate(1084.3187255859375 408.1913604736328) rotate(0 0.90240478515625 17.892730712890625)"><path d="M6.87 18.52 C6.35 22.48, 4.75 26.94, 1.14 35.5 M6.87 18.52 C5.04 24.27, 3.2 29.82, 1.14 35.5" stroke="#1e1e1e" stroke-width="1" fill="none"></path></g></g><mask></mask><g stroke-linecap="round" transform="translate(763.7862548828125 156.22837829589844) rotate(0 61.740753173828125 23.466354370117188)"><path d="M11.73 0 C34.71 1.39, 60.44 0.06, 111.75 0 M111.75 0 C118.04 0.6, 124.77 4.35, 123.48 11.73 M123.48 11.73 C125.37 20.66, 122.14 27.16, 123.48 35.2 M123.48 35.2 C124.37 43.92, 119.75 48.27, 111.75 46.93 M111.75 46.93 C74.22 46.85, 37.84 49.89, 11.73 46.93 M11.73 46.93 C5.87 47.66, -0.27 43.1, 0 35.2 M0 35.2 C-0.74 27.11, -1.49 20.21, 0 11.73 M0 11.73 C0.73 2.65, 2.84 -0.73, 11.73 0" stroke="#1e1e1e" stroke-width="1.5" fill="none" stroke-dasharray="1.5 7"></path></g><g transform="translate(777.6334838867188 168.41578674316406) rotate(0 47.23998260498047 10)"><text x="0" y="14.016" font-family="Virgil, Segoe UI Emoji" font-size="16px" fill="#1e1e1e" text-anchor="start" style="white-space: pre;" direction="ltr" dominant-baseline="alphabetic">&lt;a, 1&gt; &lt;c, 1&gt;</text></g><g stroke-linecap="round" transform="translate(1005.9688415527344 153.86392211914062) rotate(0 61.740753173828125 23.466354370117188)"><path d="M11.73 0 C43.67 0.11, 78.01 1.42, 111.75 0 M111.75 0 C119.81 0.55, 124.47 4.2, 123.48 11.73 M123.48 11.73 C125.46 17.03, 122.28 26.41, 123.48 35.2 M123.48 35.2 C124.6 44.28, 120.74 46.5, 111.75 46.93 M111.75 46.93 C71.99 45.72, 32.12 45.77, 11.73 46.93 M11.73 46.93 C3.15 45.88, -0.95 41.9, 0 35.2 M0 35.2 C0.89 28.56, 0.69 22.07, 0 11.73 M0 11.73 C-0.68 3.26, 5.48 0.74, 11.73 0" stroke="#1e1e1e" stroke-width="1.5" fill="none" stroke-dasharray="1.5 7"></path></g><g transform="translate(1042.4885559082031 169.13897705078125) rotate(0 24.535987854003906 10)"><text x="0" y="14.016" font-family="Virgil, Segoe UI Emoji" font-size="16px" fill="#1e1e1e" text-anchor="start" style="white-space: pre;" direction="ltr" dominant-baseline="alphabetic">&lt;b, 2&gt;</text></g><g stroke-linecap="round"><g transform="translate(673.4795532226562 265.2901153564453) rotate(0 34.593719482421875 -36.11289978027344)"><path d="M-0.8 0.8 C10.75 -11.27, 57.78 -60.36, 69.39 -72.63" stroke="#1e1e1e" stroke-width="1.5" fill="none" stroke-dasharray="1.5 7"></path></g><g transform="translate(673.4795532226562 265.2901153564453) rotate(0 34.593719482421875 -36.11289978027344)"><path d="M59.37 -49.73 C63.83 -56.37, 64.9 -64.23, 69.39 -72.63" stroke="#1e1e1e" stroke-width="1.5" fill="none" stroke-dasharray="1.5 5"></path></g><g transform="translate(673.4795532226562 265.2901153564453) rotate(0 34.593719482421875 -36.11289978027344)"><path d="M47 -61.53 C55.24 -64.45, 60.12 -68.69, 69.39 -72.63" stroke="#1e1e1e" stroke-width="1.5" fill="none" stroke-dasharray="1.5 5"></path></g></g><mask></mask><g transform="translate(690.6152954101562 244.6481170654297) rotate(0 30.879981994628906 10)"><text x="0" y="14.016" font-family="Virgil, Segoe UI Emoji" font-size="16px" fill="#1e1e1e" text-anchor="start" style="white-space: pre;" direction="ltr" dominant-baseline="alphabetic">combiner</text></g><g stroke-linecap="round" transform="translate(774.591064453125 37.80122375488281) rotate(0 103.11904907226562 22.045799255371094)"><path d="M11.02 0 C54.1 -0.47, 93.83 -2.81, 195.22 0 M195.22 0 C204.36 1.52, 205.46 2.03, 206.24 11.02 M206.24 11.02 C206.53 15.28, 206.82 21.17, 206.24 33.07 M206.24 33.07 C206.28 39.1, 202.79 43.26, 195.22 44.09 M195.22 44.09 C139.44 45.27, 86.99 45.3, 11.02 44.09 M11.02 44.09 C3.37 43.87, -1.27 39.6, 0 33.07 M0 33.07 C-0.67 26.76, 0 17.49, 0 11.02 M0 11.02 C-0.05 2.62, 3.79 1.74, 11.02 0" stroke="#1e1e1e" stroke-width="1.5" fill="none" stroke-dasharray="1.5 7"></path></g><g transform="translate(801.6221389770508 49.847023010253906) rotate(0 76.08797454833984 10)"><text x="76.08797454833984" y="14.016" font-family="Virgil, Segoe UI Emoji" font-size="16px" fill="#1e1e1e" text-anchor="middle" style="white-space: pre;" direction="ltr" dominant-baseline="alphabetic">&lt;a, 2&gt; &lt;c, 1&gt; &lt;e, 1&gt;</text></g><g stroke-linecap="round" transform="translate(1007.9888000488281 37.52648162841797) rotate(0 103.11904907226562 22.045799255371094)"><path d="M11.02 0 C60.86 0, 111.59 0.39, 195.22 0 M195.22 0 C201.89 -0.24, 204.7 3.07, 206.24 11.02 M206.24 11.02 C204.88 18.58, 205.97 29, 206.24 33.07 M206.24 33.07 C205.68 41.4, 200.76 43.85, 195.22 44.09 M195.22 44.09 C136.25 43.39, 79.47 41.23, 11.02 44.09 M11.02 44.09 C5.34 42.55, -1.65 40.22, 0 33.07 M0 33.07 C-0.42 25.51, 0 17.41, 0 11.02 M0 11.02 C1 4.64, 4.93 0.28, 11.02 0" stroke="#1e1e1e" stroke-width="1.5" fill="none" stroke-dasharray="1.5 7"></path></g><g transform="translate(1061.9878768920898 49.57228088378906) rotate(0 49.119972229003906 10)"><text x="49.119972229003906" y="14.016" font-family="Virgil, Segoe UI Emoji" font-size="16px" fill="#1e1e1e" text-anchor="middle" style="white-space: pre;" direction="ltr" dominant-baseline="alphabetic">&lt;b, 3&gt; &lt;f, 1&gt;</text></g><g stroke-linecap="round"><g transform="translate(828.5916748046875 153.51185607910156) rotate(0 20.867156982421875 -30.332305908203125)"><path d="M-0.6 0.2 C6.22 -10.17, 33.38 -51.27, 40.59 -61.45 M1.28 -0.75 C8.49 -11.04, 35.85 -50.5, 42.7 -60.33" stroke="#1e1e1e" stroke-width="1" fill="none"></path></g><g transform="translate(828.5916748046875 153.51185607910156) rotate(0 20.867156982421875 -30.332305908203125)"><path d="M36.32 -36.16 C38.22 -44.58, 38.31 -47.69, 42.7 -60.33 M36.32 -36.16 C38.65 -42.64, 40.72 -49.64, 42.7 -60.33" stroke="#1e1e1e" stroke-width="1" fill="none"></path></g><g transform="translate(828.5916748046875 153.51185607910156) rotate(0 20.867156982421875 -30.332305908203125)"><path d="M22.27 -45.92 C28.04 -51.62, 31.94 -52.09, 42.7 -60.33 M22.27 -45.92 C28.52 -49.66, 34.51 -53.93, 42.7 -60.33" stroke="#1e1e1e" stroke-width="1" fill="none"></path></g></g><mask></mask><g stroke-linecap="round"><g transform="translate(1071.1553955078125 158.0583038330078) rotate(0 21.504730224609375 -33.748291015625)"><path d="M1.17 -0.06 C8.54 -11.31, 36.88 -57.44, 43.92 -68.48 M0.33 -1.14 C7.64 -12.18, 36.37 -56.31, 43.44 -67.47" stroke="#1e1e1e" stroke-width="1" fill="none"></path></g><g transform="translate(1071.1553955078125 158.0583038330078) rotate(0 21.504730224609375 -33.748291015625)"><path d="M37.91 -43.09 C39.55 -48.4, 39.54 -56.1, 43.44 -67.47 M37.91 -43.09 C39.46 -53.6, 41.71 -62.97, 43.44 -67.47" stroke="#1e1e1e" stroke-width="1" fill="none"></path></g><g transform="translate(1071.1553955078125 158.0583038330078) rotate(0 21.504730224609375 -33.748291015625)"><path d="M23.53 -52.35 C29.08 -55.23, 33.07 -60.36, 43.44 -67.47 M23.53 -52.35 C30.78 -59.11, 38.73 -64.81, 43.44 -67.47" stroke="#1e1e1e" stroke-width="1" fill="none"></path></g></g><mask></mask><g transform="translate(834.5549926757812 10) rotate(0 39.5999755859375 10)"><text x="0" y="14.016" font-family="Virgil, Segoe UI Emoji" font-size="16px" fill="#1e1e1e" text-anchor="start" style="white-space: pre;" direction="ltr" dominant-baseline="alphabetic">partition 1</text></g><g transform="translate(1075.0814208984375 12.492050170898438) rotate(0 43.12797546386719 10)"><text x="0" y="14.016" font-family="Virgil, Segoe UI Emoji" font-size="16px" fill="#1e1e1e" text-anchor="start" style="white-space: pre;" direction="ltr" dominant-baseline="alphabetic">partition 2</text></g></svg>